<svg width="1425" height="280" viewBox="0 0 1425 280" fill="none" xmlns="http://www.w3.org/2000/svg">
<mask id="mask0_6009_112" style="mask-type:alpha" maskUnits="userSpaceOnUse" x="0" y="0" width="1425" height="280">
<path fill-rule="evenodd" clip-rule="evenodd" d="M499.15 41.4141C525.043 13.6035 558.913 0.000429972 599.061 0C618.133 0.000421458 636.047 2.85452 652.618 8.79843C669.422 14.8266 688.596 26.324 709.854 42.2006C727.663 55.092 745.936 70.1688 764.677 87.3832L764.808 87.2584L764.937 87.3822C783.697 70.1495 801.986 55.062 819.806 42.166C841.346 26.2947 860.653 14.8154 877.425 8.79869C893.965 2.86596 911.729 0.000423587 930.552 0C970.658 0.000429972 1004.41 13.5799 1030.03 41.4155C1041.27 53.3622 1050.02 66.4827 1056.27 80.6853V14.834H1121.84L1347.22 174.294V14.5174H1425V271.973L1359.56 272.467L1134.05 115.215V272.108H1056.27V200.271C1054.81 203.816 1053.22 207.317 1051.48 210.772C1040.19 233.282 1023.78 250.785 1002.34 262.668C981.467 274.395 957.792 280 931.847 280C899.005 280 869.377 272.965 843.545 258.302L843.502 258.278L843.46 258.254C821.789 245.796 795.517 224.332 764.895 194.821L764.791 194.919L764.663 194.791C732.717 225.396 705.8 247.223 684.209 259.237C658.985 273.273 630.128 280 598.197 280C556.769 280 522.308 266.961 497.249 239.256L497.208 239.21L497.167 239.165C479.519 219.382 468.602 195.913 464.04 169.314C461.923 172.237 459.617 175.055 457.12 177.75C439.889 196.351 414.579 207.946 382.723 207.946H174.574V273.056H96.7944V16.0967H114.729C132.174 16.0967 190.416 16.0177 248.69 15.9387L248.694 15.9387L248.699 15.9387L248.725 15.9387L248.731 15.9387C306.978 15.8597 365.247 15.7807 382.723 15.7807C414.515 15.7807 439.796 27.3865 457.026 45.9715C465.226 54.8157 471.376 64.9935 475.547 75.8071C481.493 63.5495 489.335 52.0946 499.071 41.4998L499.11 41.4569L499.15 41.4141ZM821.087 141.157C844.35 163.048 861.844 176.323 876.583 184.552C894.179 193.93 910.954 198.269 927.099 198.269C947.808 198.269 961.812 192.345 971.501 182.325C982.048 171.13 987.289 157.931 987.29 141.721C987.289 122.985 981.716 108.921 971.441 98.0413L971.317 97.9106L971.197 97.7774C961.475 87.0608 948.557 81.3009 930.553 81.3006C920.124 81.3009 910.107 83.1795 900.388 86.9585L900.21 87.0278L900.03 87.0933C890.201 90.6766 877.492 97.5153 861.697 108.284L861.608 108.344L861.518 108.404C849.889 116.129 835.7 127.631 821.087 141.157ZM709.84 139.663C695.582 128.127 682.619 118.399 670.937 110.434L670.849 110.374L670.763 110.313C654.996 99.2892 641.891 91.9589 631.309 87.7899C621.242 83.8244 609.982 81.731 597.334 81.7307C581.042 81.731 568.437 87.1733 558.171 98.0416C547.896 108.921 542.323 122.985 542.323 141.72C542.323 154.743 545.265 164.488 550.165 171.91C555.958 180.683 562.74 187.113 570.457 191.618C577.717 195.699 587.667 198.269 601.219 198.269C618.622 198.269 635.774 193.73 652.892 184.198C667.463 176.084 686.387 161.478 709.84 139.663ZM0 16.0967H77.4621V273.056H0V16.0967ZM174.574 91.3168V133.99H382.723C391.405 133.99 396.501 130.985 399.566 127.614C402.907 123.94 404.925 118.589 404.913 112.69C404.902 106.789 402.86 101.407 399.486 97.7026C396.388 94.3004 391.294 91.3168 382.723 91.3168H174.574Z" fill="black"/>
</mask>
<g mask="url(#mask0_6009_112)">
<circle cx="-2.87533" cy="4.12516" r="7.29167" fill="white"/>
<circle cx="11.7087" cy="4.12516" r="7.29167" fill="white"/>
<circle cx="-2.87533" cy="24.5417" r="7.29167" fill="white"/>
<circle cx="11.7087" cy="24.5417" r="7.29167" fill="white"/>
<circle cx="-2.87533" cy="44.9582" r="7.29167" fill="white"/>
<circle cx="11.7087" cy="44.9582" r="7.29167" fill="white"/>
<circle cx="-2.87533" cy="65.3752" r="7.29167" fill="white"/>
<circle cx="11.7087" cy="65.3752" r="7.29167" fill="white"/>
<circle cx="-2.87533" cy="85.7917" r="7.29167" fill="white"/>
<circle cx="11.7087" cy="85.7917" r="7.29167" fill="white"/>
<circle cx="-2.87533" cy="106.208" r="7.29167" fill="white"/>
<circle cx="11.7087" cy="106.208" r="7.29167" fill="white"/>
<circle cx="-2.87533" cy="126.625" r="7.29167" fill="white"/>
<circle cx="11.7087" cy="126.625" r="7.29167" fill="white"/>
<circle cx="26.2917" cy="4.12516" r="7.29167" fill="white"/>
<circle cx="40.8747" cy="4.12516" r="7.29167" fill="white"/>
<circle cx="55.4587" cy="4.12516" r="7.29167" fill="white"/>
<circle cx="70.0417" cy="4.12516" r="7.29167" fill="white"/>
<circle cx="84.6247" cy="4.12516" r="7.29167" fill="white"/>
<circle cx="99.2087" cy="4.12516" r="7.29167" fill="white"/>
<circle cx="113.792" cy="4.12516" r="7.29167" fill="white"/>
<circle cx="128.375" cy="4.12516" r="7.29167" fill="white"/>
<circle cx="142.959" cy="4.12516" r="7.29167" fill="white"/>
<circle cx="157.542" cy="4.12516" r="7.29167" fill="white"/>
<circle cx="172.125" cy="4.12516" r="7.29167" fill="white"/>
<circle cx="186.709" cy="4.12516" r="7.29167" fill="white"/>
<circle cx="26.2917" cy="24.5417" r="7.29167" fill="white"/>
<circle cx="40.8747" cy="24.5417" r="7.29167" fill="white"/>
<circle cx="55.4587" cy="24.5417" r="7.29167" fill="white"/>
<circle cx="70.0417" cy="24.5417" r="7.29167" fill="white"/>
<circle cx="84.6247" cy="24.5417" r="7.29167" fill="white"/>
<circle cx="99.2087" cy="24.5417" r="7.29167" fill="white"/>
<circle cx="113.792" cy="24.5417" r="7.29167" fill="white"/>
<circle cx="128.375" cy="24.5417" r="7.29167" fill="white"/>
<circle cx="142.959" cy="24.5417" r="7.29167" fill="white"/>
<circle cx="157.542" cy="24.5417" r="7.29167" fill="white"/>
<circle cx="172.125" cy="24.5417" r="7.29167" fill="white"/>
<circle cx="186.709" cy="24.5417" r="7.29167" fill="white"/>
<circle cx="26.2917" cy="44.9582" r="7.29167" fill="white"/>
<circle cx="40.8747" cy="44.9582" r="7.29167" fill="white"/>
<circle cx="55.4587" cy="44.9582" r="7.29167" fill="white"/>
<circle cx="70.0417" cy="44.9582" r="7.29167" fill="white"/>
<circle cx="84.6247" cy="44.9582" r="7.29167" fill="white"/>
<circle cx="99.2087" cy="44.9582" r="7.29167" fill="white"/>
<circle cx="113.792" cy="44.9582" r="7.29167" fill="white"/>
<circle cx="128.375" cy="44.9582" r="7.29167" fill="white"/>
<circle cx="142.959" cy="44.9582" r="7.29167" fill="white"/>
<circle cx="157.542" cy="44.9582" r="7.29167" fill="white"/>
<circle cx="172.125" cy="44.9582" r="7.29167" fill="white"/>
<circle cx="186.709" cy="44.9582" r="7.29167" fill="white"/>
<circle cx="26.2917" cy="65.3752" r="7.29167" fill="white"/>
<circle cx="40.8747" cy="65.3752" r="7.29167" fill="white"/>
<circle cx="55.4587" cy="65.3752" r="7.29167" fill="white"/>
<circle cx="70.0417" cy="65.3752" r="7.29167" fill="white"/>
<circle cx="84.6247" cy="65.3752" r="7.29167" fill="white"/>
<circle cx="99.2087" cy="65.3752" r="7.29167" fill="white"/>
<circle cx="113.792" cy="65.3752" r="7.29167" fill="white"/>
<circle cx="128.375" cy="65.3752" r="7.29167" fill="white"/>
<circle cx="142.959" cy="65.3752" r="7.29167" fill="white"/>
<circle cx="157.542" cy="65.3752" r="7.29167" fill="white"/>
<circle cx="172.125" cy="65.3752" r="7.29167" fill="white"/>
<circle cx="186.709" cy="65.3752" r="7.29167" fill="white"/>
<circle cx="26.2917" cy="85.7917" r="7.29167" fill="white"/>
<circle cx="40.8747" cy="85.7917" r="7.29167" fill="white"/>
<circle cx="55.4587" cy="85.7917" r="7.29167" fill="white"/>
<circle cx="70.0417" cy="85.7917" r="7.29167" fill="white"/>
<circle cx="84.6247" cy="85.7917" r="7.29167" fill="white"/>
<circle cx="99.2087" cy="85.7917" r="7.29167" fill="white"/>
<circle cx="113.792" cy="85.7917" r="7.29167" fill="white"/>
<circle cx="128.375" cy="85.7917" r="7.29167" fill="white"/>
<circle cx="142.959" cy="85.7917" r="7.29167" fill="white"/>
<circle cx="157.542" cy="85.7917" r="7.29167" fill="white"/>
<circle cx="172.125" cy="85.7917" r="7.29167" fill="white"/>
<circle cx="186.709" cy="85.7917" r="7.29167" fill="white"/>
<circle cx="26.2917" cy="106.208" r="7.29167" fill="white"/>
<circle cx="40.8747" cy="106.208" r="7.29167" fill="white"/>
<circle cx="55.4587" cy="106.208" r="7.29167" fill="white"/>
<circle cx="70.0417" cy="106.208" r="7.29167" fill="white"/>
<circle cx="84.6247" cy="106.208" r="7.29167" fill="white"/>
<circle cx="99.2087" cy="106.208" r="7.29167" fill="white"/>
<circle cx="113.792" cy="106.208" r="7.29167" fill="white"/>
<circle cx="128.375" cy="106.208" r="7.29167" fill="white"/>
<circle cx="142.959" cy="106.208" r="7.29167" fill="white"/>
<circle cx="157.542" cy="106.208" r="7.29167" fill="white"/>
<circle cx="172.125" cy="106.208" r="7.29167" fill="white"/>
<circle cx="186.709" cy="106.208" r="7.29167" fill="white"/>
<circle cx="26.2917" cy="126.625" r="7.29167" fill="white"/>
<circle cx="40.8747" cy="126.625" r="7.29167" fill="white"/>
<circle cx="55.4587" cy="126.625" r="7.29167" fill="white"/>
<circle cx="70.0417" cy="126.625" r="7.29167" fill="white"/>
<circle cx="84.6247" cy="126.625" r="7.29167" fill="white"/>
<circle cx="99.2087" cy="126.625" r="7.29167" fill="white"/>
<circle cx="113.792" cy="126.625" r="7.29167" fill="white"/>
<circle cx="128.375" cy="126.625" r="7.29167" fill="white"/>
<circle cx="142.959" cy="126.625" r="7.29167" fill="white"/>
<circle cx="157.542" cy="126.625" r="7.29167" fill="white"/>
<circle cx="172.125" cy="126.625" r="7.29167" fill="white"/>
<circle cx="186.709" cy="126.625" r="7.29167" fill="white"/>
<circle cx="-2.87533" cy="147.917" r="7.29167" fill="white"/>
<circle cx="11.7087" cy="147.917" r="7.29167" fill="white"/>
<circle cx="-2.87533" cy="168.333" r="7.29167" fill="white"/>
<circle cx="11.7087" cy="168.333" r="7.29167" fill="white"/>
<circle cx="-2.87533" cy="188.75" r="7.29167" fill="white"/>
<circle cx="11.7087" cy="188.75" r="7.29167" fill="white"/>
<circle cx="-2.87533" cy="209.167" r="7.29167" fill="white"/>
<circle cx="11.7087" cy="209.167" r="7.29167" fill="white"/>
<circle cx="-2.87533" cy="229.583" r="7.29167" fill="white"/>
<circle cx="11.7087" cy="229.583" r="7.29167" fill="white"/>
<circle cx="-2.87533" cy="250" r="7.29167" fill="white"/>
<circle cx="11.7087" cy="250" r="7.29167" fill="white"/>
<circle cx="-2.87533" cy="270.417" r="7.29167" fill="white"/>
<circle cx="11.7087" cy="270.417" r="7.29167" fill="white"/>
<circle cx="26.2917" cy="147.917" r="7.29167" fill="white"/>
<circle cx="40.8747" cy="147.917" r="7.29167" fill="white"/>
<circle cx="55.4587" cy="147.917" r="7.29167" fill="white"/>
<circle cx="70.0417" cy="147.917" r="7.29167" fill="white"/>
<circle cx="84.6247" cy="147.917" r="7.29167" fill="white"/>
<circle cx="99.2087" cy="147.917" r="7.29167" fill="white"/>
<circle cx="113.792" cy="147.917" r="7.29167" fill="white"/>
<circle cx="128.375" cy="147.917" r="7.29167" fill="white"/>
<circle cx="142.959" cy="147.917" r="7.29167" fill="white"/>
<circle cx="157.542" cy="147.917" r="7.29167" fill="white"/>
<circle cx="172.125" cy="147.917" r="7.29167" fill="white"/>
<circle cx="186.709" cy="147.917" r="7.29167" fill="white"/>
<circle cx="26.2917" cy="168.333" r="7.29167" fill="white"/>
<circle cx="40.8747" cy="168.333" r="7.29167" fill="white"/>
<circle cx="55.4587" cy="168.333" r="7.29167" fill="white"/>
<circle cx="70.0417" cy="168.333" r="7.29167" fill="white"/>
<circle cx="84.6247" cy="168.333" r="7.29167" fill="white"/>
<circle cx="99.2087" cy="168.333" r="7.29167" fill="white"/>
<circle cx="113.792" cy="168.333" r="7.29167" fill="white"/>
<circle cx="128.375" cy="168.333" r="7.29167" fill="white"/>
<circle cx="142.959" cy="168.333" r="7.29167" fill="white"/>
<circle cx="157.542" cy="168.333" r="7.29167" fill="white"/>
<circle cx="172.125" cy="168.333" r="7.29167" fill="white"/>
<circle cx="186.709" cy="168.333" r="7.29167" fill="white"/>
<circle cx="26.2917" cy="188.75" r="7.29167" fill="white"/>
<circle cx="40.8747" cy="188.75" r="7.29167" fill="white"/>
<circle cx="55.4587" cy="188.75" r="7.29167" fill="white"/>
<circle cx="70.0417" cy="188.75" r="7.29167" fill="white"/>
<circle cx="84.6247" cy="188.75" r="7.29167" fill="white"/>
<circle cx="99.2087" cy="188.75" r="7.29167" fill="white"/>
<circle cx="113.792" cy="188.75" r="7.29167" fill="white"/>
<circle cx="128.375" cy="188.75" r="7.29167" fill="white"/>
<circle cx="142.959" cy="188.75" r="7.29167" fill="white"/>
<circle cx="157.542" cy="188.75" r="7.29167" fill="white"/>
<circle cx="172.125" cy="188.75" r="7.29167" fill="white"/>
<circle cx="186.709" cy="188.75" r="7.29167" fill="white"/>
<circle cx="26.2917" cy="209.167" r="7.29167" fill="white"/>
<circle cx="40.8747" cy="209.167" r="7.29167" fill="white"/>
<circle cx="55.4587" cy="209.167" r="7.29167" fill="white"/>
<circle cx="70.0417" cy="209.167" r="7.29167" fill="white"/>
<circle cx="84.6247" cy="209.167" r="7.29167" fill="white"/>
<circle cx="99.2087" cy="209.167" r="7.29167" fill="white"/>
<circle cx="113.792" cy="209.167" r="7.29167" fill="white"/>
<circle cx="128.375" cy="209.167" r="7.29167" fill="white"/>
<circle cx="142.959" cy="209.167" r="7.29167" fill="white"/>
<circle cx="157.542" cy="209.167" r="7.29167" fill="white"/>
<circle cx="172.125" cy="209.167" r="7.29167" fill="white"/>
<circle cx="186.709" cy="209.167" r="7.29167" fill="white"/>
<circle cx="26.2917" cy="229.583" r="7.29167" fill="white"/>
<circle cx="40.8747" cy="229.583" r="7.29167" fill="white"/>
<circle cx="55.4587" cy="229.583" r="7.29167" fill="white"/>
<circle cx="70.0417" cy="229.583" r="7.29167" fill="white"/>
<circle cx="84.6247" cy="229.583" r="7.29167" fill="white"/>
<circle cx="99.2087" cy="229.583" r="7.29167" fill="white"/>
<circle cx="113.792" cy="229.583" r="7.29167" fill="white"/>
<circle cx="128.375" cy="229.583" r="7.29167" fill="white"/>
<circle cx="142.959" cy="229.583" r="7.29167" fill="white"/>
<circle cx="157.542" cy="229.583" r="7.29167" fill="white"/>
<circle cx="172.125" cy="229.583" r="7.29167" fill="white"/>
<circle cx="186.709" cy="229.583" r="7.29167" fill="white"/>
<circle cx="26.2917" cy="250" r="7.29167" fill="white"/>
<circle cx="40.8747" cy="250" r="7.29167" fill="white"/>
<circle cx="55.4587" cy="250" r="7.29167" fill="white"/>
<circle cx="70.0417" cy="250" r="7.29167" fill="white"/>
<circle cx="84.6247" cy="250" r="7.29167" fill="white"/>
<circle cx="99.2087" cy="250" r="7.29167" fill="white"/>
<circle cx="113.792" cy="250" r="7.29167" fill="white"/>
<circle cx="128.375" cy="250" r="7.29167" fill="white"/>
<circle cx="142.959" cy="250" r="7.29167" fill="white"/>
<circle cx="157.542" cy="250" r="7.29167" fill="white"/>
<circle cx="172.125" cy="250" r="7.29167" fill="white"/>
<circle cx="186.709" cy="250" r="7.29167" fill="white"/>
<circle cx="26.2917" cy="270.417" r="7.29167" fill="white"/>
<circle cx="40.8747" cy="270.417" r="7.29167" fill="white"/>
<circle cx="55.4587" cy="270.417" r="7.29167" fill="white"/>
<circle cx="70.0417" cy="270.417" r="7.29167" fill="white"/>
<circle cx="84.6247" cy="270.417" r="7.29167" fill="white"/>
<circle cx="99.2087" cy="270.417" r="7.29167" fill="white"/>
<circle cx="113.792" cy="270.417" r="7.29167" fill="white"/>
<circle cx="128.375" cy="270.417" r="7.29167" fill="white"/>
<circle cx="142.959" cy="270.417" r="7.29167" fill="white"/>
<circle cx="157.542" cy="270.417" r="7.29167" fill="white"/>
<circle cx="172.125" cy="270.417" r="7.29167" fill="white"/>
<circle cx="186.709" cy="270.417" r="7.29167" fill="white"/>
<circle cx="201.292" cy="4.12516" r="7.29167" fill="white"/>
<circle cx="215.875" cy="4.12516" r="7.29167" fill="white"/>
<circle cx="230.459" cy="4.12516" r="7.29167" fill="white"/>
<circle cx="245.042" cy="4.12516" r="7.29167" fill="white"/>
<circle cx="259.625" cy="4.12516" r="7.29167" fill="white"/>
<circle cx="274.209" cy="4.12516" r="7.29167" fill="white"/>
<circle cx="288.792" cy="4.12516" r="7.29167" fill="white"/>
<circle cx="303.375" cy="4.12516" r="7.29167" fill="white"/>
<circle cx="317.959" cy="4.12516" r="7.29167" fill="white"/>
<circle cx="332.542" cy="4.12516" r="7.29167" fill="white"/>
<circle cx="347.125" cy="4.12516" r="7.29167" fill="white"/>
<circle cx="361.709" cy="4.12516" r="7.29167" fill="white"/>
<circle cx="201.292" cy="24.5417" r="7.29167" fill="white"/>
<circle cx="215.875" cy="24.5417" r="7.29167" fill="white"/>
<circle cx="230.459" cy="24.5417" r="7.29167" fill="white"/>
<circle cx="245.042" cy="24.5417" r="7.29167" fill="white"/>
<circle cx="259.625" cy="24.5417" r="7.29167" fill="white"/>
<circle cx="274.209" cy="24.5417" r="7.29167" fill="white"/>
<circle cx="288.792" cy="24.5417" r="7.29167" fill="white"/>
<circle cx="303.375" cy="24.5417" r="7.29167" fill="white"/>
<circle cx="317.959" cy="24.5417" r="7.29167" fill="white"/>
<circle cx="332.542" cy="24.5417" r="7.29167" fill="white"/>
<circle cx="347.125" cy="24.5417" r="7.29167" fill="white"/>
<circle cx="361.709" cy="24.5417" r="7.29167" fill="white"/>
<circle cx="201.292" cy="44.9582" r="7.29167" fill="white"/>
<circle cx="215.875" cy="44.9582" r="7.29167" fill="white"/>
<circle cx="230.459" cy="44.9582" r="7.29167" fill="white"/>
<circle cx="245.042" cy="44.9582" r="7.29167" fill="white"/>
<circle cx="259.625" cy="44.9582" r="7.29167" fill="white"/>
<circle cx="274.209" cy="44.9582" r="7.29167" fill="white"/>
<circle cx="288.792" cy="44.9582" r="7.29167" fill="white"/>
<circle cx="303.375" cy="44.9582" r="7.29167" fill="white"/>
<circle cx="317.959" cy="44.9582" r="7.29167" fill="white"/>
<circle cx="332.542" cy="44.9582" r="7.29167" fill="white"/>
<circle cx="347.125" cy="44.9582" r="7.29167" fill="white"/>
<circle cx="361.709" cy="44.9582" r="7.29167" fill="white"/>
<circle cx="201.292" cy="65.3752" r="7.29167" fill="white"/>
<circle cx="215.875" cy="65.3752" r="7.29167" fill="white"/>
<circle cx="230.459" cy="65.3752" r="7.29167" fill="white"/>
<circle cx="245.042" cy="65.3752" r="7.29167" fill="white"/>
<circle cx="259.625" cy="65.3752" r="7.29167" fill="white"/>
<circle cx="274.209" cy="65.3752" r="7.29167" fill="white"/>
<circle cx="288.792" cy="65.3752" r="7.29167" fill="white"/>
<circle cx="303.375" cy="65.3752" r="7.29167" fill="white"/>
<circle cx="317.959" cy="65.3752" r="7.29167" fill="white"/>
<circle cx="332.542" cy="65.3752" r="7.29167" fill="white"/>
<circle cx="347.125" cy="65.3752" r="7.29167" fill="white"/>
<circle cx="361.709" cy="65.3752" r="7.29167" fill="white"/>
<circle cx="201.292" cy="85.7917" r="7.29167" fill="white"/>
<circle cx="215.875" cy="85.7917" r="7.29167" fill="white"/>
<circle cx="230.459" cy="85.7917" r="7.29167" fill="white"/>
<circle cx="245.042" cy="85.7917" r="7.29167" fill="white"/>
<circle cx="259.625" cy="85.7917" r="7.29167" fill="white"/>
<circle cx="274.209" cy="85.7917" r="7.29167" fill="white"/>
<circle cx="288.792" cy="85.7917" r="7.29167" fill="white"/>
<circle cx="303.375" cy="85.7917" r="7.29167" fill="white"/>
<circle cx="317.959" cy="85.7917" r="7.29167" fill="white"/>
<circle cx="332.542" cy="85.7917" r="7.29167" fill="white"/>
<circle cx="347.125" cy="85.7917" r="7.29167" fill="white"/>
<circle cx="361.709" cy="85.7917" r="7.29167" fill="white"/>
<circle cx="201.292" cy="106.208" r="7.29167" fill="white"/>
<circle cx="215.875" cy="106.208" r="7.29167" fill="white"/>
<circle cx="230.459" cy="106.208" r="7.29167" fill="white"/>
<circle cx="245.042" cy="106.208" r="7.29167" fill="white"/>
<circle cx="259.625" cy="106.208" r="7.29167" fill="white"/>
<circle cx="274.209" cy="106.208" r="7.29167" fill="white"/>
<circle cx="288.792" cy="106.208" r="7.29167" fill="white"/>
<circle cx="303.375" cy="106.208" r="7.29167" fill="white"/>
<circle cx="317.959" cy="106.208" r="7.29167" fill="white"/>
<circle cx="332.542" cy="106.208" r="7.29167" fill="white"/>
<circle cx="347.125" cy="106.208" r="7.29167" fill="white"/>
<circle cx="361.709" cy="106.208" r="7.29167" fill="white"/>
<circle cx="201.292" cy="126.625" r="7.29167" fill="white"/>
<circle cx="215.875" cy="126.625" r="7.29167" fill="white"/>
<circle cx="230.459" cy="126.625" r="7.29167" fill="white"/>
<circle cx="245.042" cy="126.625" r="7.29167" fill="white"/>
<circle cx="259.625" cy="126.625" r="7.29167" fill="white"/>
<circle cx="274.209" cy="126.625" r="7.29167" fill="white"/>
<circle cx="288.792" cy="126.625" r="7.29167" fill="white"/>
<circle cx="303.375" cy="126.625" r="7.29167" fill="white"/>
<circle cx="317.959" cy="126.625" r="7.29167" fill="white"/>
<circle cx="332.542" cy="126.625" r="7.29167" fill="white"/>
<circle cx="347.125" cy="126.625" r="7.29167" fill="white"/>
<circle cx="361.709" cy="126.625" r="7.29167" fill="white"/>
<circle cx="376.292" cy="4.12516" r="7.29167" fill="white"/>
<circle cx="390.875" cy="4.12516" r="7.29167" fill="white"/>
<circle cx="405.459" cy="4.12516" r="7.29167" fill="white"/>
<circle cx="420.042" cy="4.12516" r="7.29167" fill="white"/>
<circle cx="434.625" cy="4.12516" r="7.29167" fill="white"/>
<circle cx="449.209" cy="4.12516" r="7.29167" fill="white"/>
<circle cx="463.792" cy="4.12516" r="7.29167" fill="white"/>
<circle cx="478.375" cy="4.12516" r="7.29167" fill="white"/>
<circle cx="492.959" cy="4.12516" r="7.29167" fill="white"/>
<circle cx="507.542" cy="4.12516" r="7.29167" fill="white"/>
<circle cx="522.125" cy="4.12516" r="7.29167" fill="white"/>
<circle cx="536.709" cy="4.12516" r="7.29167" fill="white"/>
<circle cx="376.292" cy="24.5417" r="7.29167" fill="white"/>
<circle cx="390.875" cy="24.5417" r="7.29167" fill="white"/>
<circle cx="405.459" cy="24.5417" r="7.29167" fill="white"/>
<circle cx="420.042" cy="24.5417" r="7.29167" fill="white"/>
<circle cx="434.625" cy="24.5417" r="7.29167" fill="white"/>
<circle cx="449.209" cy="24.5417" r="7.29167" fill="white"/>
<circle cx="463.792" cy="24.5417" r="7.29167" fill="white"/>
<circle cx="478.375" cy="24.5417" r="7.29167" fill="white"/>
<circle cx="492.959" cy="24.5417" r="7.29167" fill="white"/>
<circle cx="507.542" cy="24.5417" r="7.29167" fill="white"/>
<circle cx="522.125" cy="24.5417" r="7.29167" fill="white"/>
<circle cx="536.709" cy="24.5417" r="7.29167" fill="white"/>
<circle cx="376.292" cy="44.9582" r="7.29167" fill="white"/>
<circle cx="390.875" cy="44.9582" r="7.29167" fill="white"/>
<circle cx="405.459" cy="44.9582" r="7.29167" fill="white"/>
<circle cx="420.042" cy="44.9582" r="7.29167" fill="white"/>
<circle cx="434.625" cy="44.9582" r="7.29167" fill="white"/>
<circle cx="449.209" cy="44.9582" r="7.29167" fill="white"/>
<circle cx="463.792" cy="44.9582" r="7.29167" fill="white"/>
<circle cx="478.375" cy="44.9582" r="7.29167" fill="white"/>
<circle cx="492.959" cy="44.9582" r="7.29167" fill="white"/>
<circle cx="507.542" cy="44.9582" r="7.29167" fill="white"/>
<circle cx="522.125" cy="44.9582" r="7.29167" fill="white"/>
<circle cx="536.709" cy="44.9582" r="7.29167" fill="white"/>
<circle cx="376.292" cy="65.3752" r="7.29167" fill="white"/>
<circle cx="390.875" cy="65.3752" r="7.29167" fill="white"/>
<circle cx="405.459" cy="65.3752" r="7.29167" fill="white"/>
<circle cx="420.042" cy="65.3752" r="7.29167" fill="white"/>
<circle cx="434.625" cy="65.3752" r="7.29167" fill="white"/>
<circle cx="449.209" cy="65.3752" r="7.29167" fill="white"/>
<circle cx="463.792" cy="65.3752" r="7.29167" fill="white"/>
<circle cx="478.375" cy="65.3752" r="7.29167" fill="white"/>
<circle cx="492.959" cy="65.3752" r="7.29167" fill="white"/>
<circle cx="507.542" cy="65.3752" r="7.29167" fill="white"/>
<circle cx="522.125" cy="65.3752" r="7.29167" fill="white"/>
<circle cx="536.709" cy="65.3752" r="7.29167" fill="white"/>
<circle cx="376.292" cy="85.7917" r="7.29167" fill="white"/>
<circle cx="390.875" cy="85.7917" r="7.29167" fill="white"/>
<circle cx="405.459" cy="85.7917" r="7.29167" fill="white"/>
<circle cx="420.042" cy="85.7917" r="7.29167" fill="white"/>
<circle cx="434.625" cy="85.7917" r="7.29167" fill="white"/>
<circle cx="449.209" cy="85.7917" r="7.29167" fill="white"/>
<circle cx="463.792" cy="85.7917" r="7.29167" fill="white"/>
<circle cx="478.375" cy="85.7917" r="7.29167" fill="white"/>
<circle cx="492.959" cy="85.7917" r="7.29167" fill="white"/>
<circle cx="507.542" cy="85.7917" r="7.29167" fill="white"/>
<circle cx="522.125" cy="85.7917" r="7.29167" fill="white"/>
<circle cx="536.709" cy="85.7917" r="7.29167" fill="white"/>
<circle cx="376.292" cy="106.208" r="7.29167" fill="white"/>
<circle cx="390.875" cy="106.208" r="7.29167" fill="white"/>
<circle cx="405.459" cy="106.208" r="7.29167" fill="white"/>
<circle cx="420.042" cy="106.208" r="7.29167" fill="white"/>
<circle cx="434.625" cy="106.208" r="7.29167" fill="white"/>
<circle cx="449.209" cy="106.208" r="7.29167" fill="white"/>
<circle cx="463.792" cy="106.208" r="7.29167" fill="white"/>
<circle cx="478.375" cy="106.208" r="7.29167" fill="white"/>
<circle cx="492.959" cy="106.208" r="7.29167" fill="white"/>
<circle cx="507.542" cy="106.208" r="7.29167" fill="white"/>
<circle cx="522.125" cy="106.208" r="7.29167" fill="white"/>
<circle cx="536.709" cy="106.208" r="7.29167" fill="white"/>
<circle cx="376.292" cy="126.625" r="7.29167" fill="white"/>
<circle cx="390.875" cy="126.625" r="7.29167" fill="white"/>
<circle cx="405.459" cy="126.625" r="7.29167" fill="white"/>
<circle cx="420.042" cy="126.625" r="7.29167" fill="white"/>
<circle cx="434.625" cy="126.625" r="7.29167" fill="white"/>
<circle cx="449.209" cy="126.625" r="7.29167" fill="white"/>
<circle cx="463.792" cy="126.625" r="7.29167" fill="white"/>
<circle cx="478.375" cy="126.625" r="7.29167" fill="white"/>
<circle cx="492.959" cy="126.625" r="7.29167" fill="white"/>
<circle cx="507.542" cy="126.625" r="7.29167" fill="white"/>
<circle cx="522.125" cy="126.625" r="7.29167" fill="white"/>
<circle cx="536.709" cy="126.625" r="7.29167" fill="white"/>
<circle cx="201.292" cy="147.917" r="7.29167" fill="white"/>
<circle cx="215.875" cy="147.917" r="7.29167" fill="white"/>
<circle cx="230.459" cy="147.917" r="7.29167" fill="white"/>
<circle cx="245.042" cy="147.917" r="7.29167" fill="white"/>
<circle cx="259.625" cy="147.917" r="7.29167" fill="white"/>
<circle cx="274.209" cy="147.917" r="7.29167" fill="white"/>
<circle cx="288.792" cy="147.917" r="7.29167" fill="white"/>
<circle cx="303.375" cy="147.917" r="7.29167" fill="white"/>
<circle cx="317.959" cy="147.917" r="7.29167" fill="white"/>
<circle cx="332.542" cy="147.917" r="7.29167" fill="white"/>
<circle cx="347.125" cy="147.917" r="7.29167" fill="white"/>
<circle cx="361.709" cy="147.917" r="7.29167" fill="white"/>
<circle cx="201.292" cy="168.333" r="7.29167" fill="white"/>
<circle cx="215.875" cy="168.333" r="7.29167" fill="white"/>
<circle cx="230.459" cy="168.333" r="7.29167" fill="white"/>
<circle cx="245.042" cy="168.333" r="7.29167" fill="white"/>
<circle cx="259.625" cy="168.333" r="7.29167" fill="white"/>
<circle cx="274.209" cy="168.333" r="7.29167" fill="white"/>
<circle cx="288.792" cy="168.333" r="7.29167" fill="white"/>
<circle cx="303.375" cy="168.333" r="7.29167" fill="white"/>
<circle cx="317.959" cy="168.333" r="7.29167" fill="white"/>
<circle cx="332.542" cy="168.333" r="7.29167" fill="white"/>
<circle cx="347.125" cy="168.333" r="7.29167" fill="white"/>
<circle cx="361.709" cy="168.333" r="7.29167" fill="white"/>
<circle cx="201.292" cy="188.75" r="7.29167" fill="white"/>
<circle cx="215.875" cy="188.75" r="7.29167" fill="white"/>
<circle cx="230.459" cy="188.75" r="7.29167" fill="white"/>
<circle cx="245.042" cy="188.75" r="7.29167" fill="white"/>
<circle cx="259.625" cy="188.75" r="7.29167" fill="white"/>
<circle cx="274.209" cy="188.75" r="7.29167" fill="white"/>
<circle cx="288.792" cy="188.75" r="7.29167" fill="white"/>
<circle cx="303.375" cy="188.75" r="7.29167" fill="white"/>
<circle cx="317.959" cy="188.75" r="7.29167" fill="white"/>
<circle cx="332.542" cy="188.75" r="7.29167" fill="white"/>
<circle cx="347.125" cy="188.75" r="7.29167" fill="white"/>
<circle cx="361.709" cy="188.75" r="7.29167" fill="white"/>
<circle cx="201.292" cy="209.167" r="7.29167" fill="white"/>
<circle cx="215.875" cy="209.167" r="7.29167" fill="white"/>
<circle cx="230.459" cy="209.167" r="7.29167" fill="white"/>
<circle cx="245.042" cy="209.167" r="7.29167" fill="white"/>
<circle cx="259.625" cy="209.167" r="7.29167" fill="white"/>
<circle cx="274.209" cy="209.167" r="7.29167" fill="white"/>
<circle cx="288.792" cy="209.167" r="7.29167" fill="white"/>
<circle cx="303.375" cy="209.167" r="7.29167" fill="white"/>
<circle cx="317.959" cy="209.167" r="7.29167" fill="white"/>
<circle cx="332.542" cy="209.167" r="7.29167" fill="white"/>
<circle cx="347.125" cy="209.167" r="7.29167" fill="white"/>
<circle cx="361.709" cy="209.167" r="7.29167" fill="white"/>
<circle cx="201.292" cy="229.583" r="7.29167" fill="white"/>
<circle cx="215.875" cy="229.583" r="7.29167" fill="white"/>
<circle cx="230.459" cy="229.583" r="7.29167" fill="white"/>
<circle cx="245.042" cy="229.583" r="7.29167" fill="white"/>
<circle cx="259.625" cy="229.583" r="7.29167" fill="white"/>
<circle cx="274.209" cy="229.583" r="7.29167" fill="white"/>
<circle cx="288.792" cy="229.583" r="7.29167" fill="white"/>
<circle cx="303.375" cy="229.583" r="7.29167" fill="white"/>
<circle cx="317.959" cy="229.583" r="7.29167" fill="white"/>
<circle cx="332.542" cy="229.583" r="7.29167" fill="white"/>
<circle cx="347.125" cy="229.583" r="7.29167" fill="white"/>
<circle cx="361.709" cy="229.583" r="7.29167" fill="white"/>
<circle cx="201.292" cy="250" r="7.29167" fill="white"/>
<circle cx="215.875" cy="250" r="7.29167" fill="white"/>
<circle cx="230.459" cy="250" r="7.29167" fill="white"/>
<circle cx="245.042" cy="250" r="7.29167" fill="white"/>
<circle cx="259.625" cy="250" r="7.29167" fill="white"/>
<circle cx="274.209" cy="250" r="7.29167" fill="white"/>
<circle cx="288.792" cy="250" r="7.29167" fill="white"/>
<circle cx="303.375" cy="250" r="7.29167" fill="white"/>
<circle cx="317.959" cy="250" r="7.29167" fill="white"/>
<circle cx="332.542" cy="250" r="7.29167" fill="white"/>
<circle cx="347.125" cy="250" r="7.29167" fill="white"/>
<circle cx="361.709" cy="250" r="7.29167" fill="white"/>
<circle cx="201.292" cy="270.417" r="7.29167" fill="white"/>
<circle cx="215.875" cy="270.417" r="7.29167" fill="white"/>
<circle cx="230.459" cy="270.417" r="7.29167" fill="white"/>
<circle cx="245.042" cy="270.417" r="7.29167" fill="white"/>
<circle cx="259.625" cy="270.417" r="7.29167" fill="white"/>
<circle cx="274.209" cy="270.417" r="7.29167" fill="white"/>
<circle cx="288.792" cy="270.417" r="7.29167" fill="white"/>
<circle cx="303.375" cy="270.417" r="7.29167" fill="white"/>
<circle cx="317.959" cy="270.417" r="7.29167" fill="white"/>
<circle cx="332.542" cy="270.417" r="7.29167" fill="white"/>
<circle cx="347.125" cy="270.417" r="7.29167" fill="white"/>
<circle cx="361.709" cy="270.417" r="7.29167" fill="white"/>
<circle cx="376.292" cy="147.917" r="7.29167" fill="white"/>
<circle cx="390.875" cy="147.917" r="7.29167" fill="white"/>
<circle cx="405.459" cy="147.917" r="7.29167" fill="white"/>
<circle cx="420.042" cy="147.917" r="7.29167" fill="white"/>
<circle cx="434.625" cy="147.917" r="7.29167" fill="white"/>
<circle cx="449.209" cy="147.917" r="7.29167" fill="white"/>
<circle cx="463.792" cy="147.917" r="7.29167" fill="white"/>
<circle cx="478.375" cy="147.917" r="7.29167" fill="white"/>
<circle cx="492.959" cy="147.917" r="7.29167" fill="white"/>
<circle cx="507.542" cy="147.917" r="7.29167" fill="white"/>
<circle cx="522.125" cy="147.917" r="7.29167" fill="white"/>
<circle cx="536.709" cy="147.917" r="7.29167" fill="white"/>
<circle cx="376.292" cy="168.333" r="7.29167" fill="white"/>
<circle cx="390.875" cy="168.333" r="7.29167" fill="white"/>
<circle cx="405.459" cy="168.333" r="7.29167" fill="white"/>
<circle cx="420.042" cy="168.333" r="7.29167" fill="white"/>
<circle cx="434.625" cy="168.333" r="7.29167" fill="white"/>
<circle cx="449.209" cy="168.333" r="7.29167" fill="white"/>
<circle cx="463.792" cy="168.333" r="7.29167" fill="white"/>
<circle cx="478.375" cy="168.333" r="7.29167" fill="white"/>
<circle cx="492.959" cy="168.333" r="7.29167" fill="white"/>
<circle cx="507.542" cy="168.333" r="7.29167" fill="white"/>
<circle cx="522.125" cy="168.333" r="7.29167" fill="white"/>
<circle cx="536.709" cy="168.333" r="7.29167" fill="white"/>
<circle cx="376.292" cy="188.75" r="7.29167" fill="white"/>
<circle cx="390.875" cy="188.75" r="7.29167" fill="white"/>
<circle cx="405.459" cy="188.75" r="7.29167" fill="white"/>
<circle cx="420.042" cy="188.75" r="7.29167" fill="white"/>
<circle cx="434.625" cy="188.75" r="7.29167" fill="white"/>
<circle cx="449.209" cy="188.75" r="7.29167" fill="white"/>
<circle cx="463.792" cy="188.75" r="7.29167" fill="white"/>
<circle cx="478.375" cy="188.75" r="7.29167" fill="white"/>
<circle cx="492.959" cy="188.75" r="7.29167" fill="white"/>
<circle cx="507.542" cy="188.75" r="7.29167" fill="white"/>
<circle cx="522.125" cy="188.75" r="7.29167" fill="white"/>
<circle cx="536.709" cy="188.75" r="7.29167" fill="white"/>
<circle cx="376.292" cy="209.167" r="7.29167" fill="white"/>
<circle cx="390.875" cy="209.167" r="7.29167" fill="white"/>
<circle cx="405.459" cy="209.167" r="7.29167" fill="white"/>
<circle cx="420.042" cy="209.167" r="7.29167" fill="white"/>
<circle cx="434.625" cy="209.167" r="7.29167" fill="white"/>
<circle cx="449.209" cy="209.167" r="7.29167" fill="white"/>
<circle cx="463.792" cy="209.167" r="7.29167" fill="white"/>
<circle cx="478.375" cy="209.167" r="7.29167" fill="white"/>
<circle cx="492.959" cy="209.167" r="7.29167" fill="white"/>
<circle cx="507.542" cy="209.167" r="7.29167" fill="white"/>
<circle cx="522.125" cy="209.167" r="7.29167" fill="white"/>
<circle cx="536.709" cy="209.167" r="7.29167" fill="white"/>
<circle cx="376.292" cy="229.583" r="7.29167" fill="white"/>
<circle cx="390.875" cy="229.583" r="7.29167" fill="white"/>
<circle cx="405.459" cy="229.583" r="7.29167" fill="white"/>
<circle cx="420.042" cy="229.583" r="7.29167" fill="white"/>
<circle cx="434.625" cy="229.583" r="7.29167" fill="white"/>
<circle cx="449.209" cy="229.583" r="7.29167" fill="white"/>
<circle cx="463.792" cy="229.583" r="7.29167" fill="white"/>
<circle cx="478.375" cy="229.583" r="7.29167" fill="white"/>
<circle cx="492.959" cy="229.583" r="7.29167" fill="white"/>
<circle cx="507.542" cy="229.583" r="7.29167" fill="white"/>
<circle cx="522.125" cy="229.583" r="7.29167" fill="white"/>
<circle cx="536.709" cy="229.583" r="7.29167" fill="white"/>
<circle cx="376.292" cy="250" r="7.29167" fill="white"/>
<circle cx="390.875" cy="250" r="7.29167" fill="white"/>
<circle cx="405.459" cy="250" r="7.29167" fill="white"/>
<circle cx="420.042" cy="250" r="7.29167" fill="white"/>
<circle cx="434.625" cy="250" r="7.29167" fill="white"/>
<circle cx="449.209" cy="250" r="7.29167" fill="white"/>
<circle cx="463.792" cy="250" r="7.29167" fill="white"/>
<circle cx="478.375" cy="250" r="7.29167" fill="white"/>
<circle cx="492.959" cy="250" r="7.29167" fill="white"/>
<circle cx="507.542" cy="250" r="7.29167" fill="white"/>
<circle cx="522.125" cy="250" r="7.29167" fill="white"/>
<circle cx="536.709" cy="250" r="7.29167" fill="white"/>
<circle cx="376.292" cy="270.417" r="7.29167" fill="white"/>
<circle cx="390.875" cy="270.417" r="7.29167" fill="white"/>
<circle cx="405.459" cy="270.417" r="7.29167" fill="white"/>
<circle cx="420.042" cy="270.417" r="7.29167" fill="white"/>
<circle cx="434.625" cy="270.417" r="7.29167" fill="white"/>
<circle cx="449.209" cy="270.417" r="7.29167" fill="white"/>
<circle cx="463.792" cy="270.417" r="7.29167" fill="white"/>
<circle cx="478.375" cy="270.417" r="7.29167" fill="white"/>
<circle cx="492.959" cy="270.417" r="7.29167" fill="white"/>
<circle cx="507.542" cy="270.417" r="7.29167" fill="white"/>
<circle cx="522.125" cy="270.417" r="7.29167" fill="white"/>
<circle cx="536.709" cy="270.417" r="7.29167" fill="white"/>
<circle cx="551.292" cy="4.12516" r="7.29167" fill="white"/>
<circle cx="565.875" cy="4.12516" r="7.29167" fill="white"/>
<circle cx="580.459" cy="4.12516" r="7.29167" fill="white"/>
<circle cx="595.042" cy="4.12516" r="7.29167" fill="white"/>
<circle cx="609.625" cy="4.12516" r="7.29167" fill="white"/>
<circle cx="624.209" cy="4.12516" r="7.29167" fill="white"/>
<circle cx="638.792" cy="4.12516" r="7.29167" fill="white"/>
<circle cx="653.375" cy="4.12516" r="7.29167" fill="white"/>
<circle cx="667.959" cy="4.12516" r="7.29167" fill="white"/>
<circle cx="682.542" cy="4.12516" r="7.29167" fill="white"/>
<circle cx="697.125" cy="4.12516" r="7.29167" fill="white"/>
<circle cx="711.709" cy="4.12516" r="7.29167" fill="white"/>
<circle cx="551.292" cy="24.5417" r="7.29167" fill="white"/>
<circle cx="565.875" cy="24.5417" r="7.29167" fill="white"/>
<circle cx="580.459" cy="24.5417" r="7.29167" fill="white"/>
<circle cx="595.042" cy="24.5417" r="7.29167" fill="white"/>
<circle cx="609.625" cy="24.5417" r="7.29167" fill="white"/>
<circle cx="624.209" cy="24.5417" r="7.29167" fill="white"/>
<circle cx="638.792" cy="24.5417" r="7.29167" fill="white"/>
<circle cx="653.375" cy="24.5417" r="7.29167" fill="white"/>
<circle cx="667.959" cy="24.5417" r="7.29167" fill="white"/>
<circle cx="682.542" cy="24.5417" r="7.29167" fill="white"/>
<circle cx="697.125" cy="24.5417" r="7.29167" fill="white"/>
<circle cx="711.709" cy="24.5417" r="7.29167" fill="white"/>
<circle cx="551.292" cy="44.9582" r="7.29167" fill="white"/>
<circle cx="565.875" cy="44.9582" r="7.29167" fill="white"/>
<circle cx="580.459" cy="44.9582" r="7.29167" fill="white"/>
<circle cx="595.042" cy="44.9582" r="7.29167" fill="white"/>
<circle cx="609.625" cy="44.9582" r="7.29167" fill="white"/>
<circle cx="624.209" cy="44.9582" r="7.29167" fill="white"/>
<circle cx="638.792" cy="44.9582" r="7.29167" fill="white"/>
<circle cx="653.375" cy="44.9582" r="7.29167" fill="white"/>
<circle cx="667.959" cy="44.9582" r="7.29167" fill="white"/>
<circle cx="682.542" cy="44.9582" r="7.29167" fill="white"/>
<circle cx="697.125" cy="44.9582" r="7.29167" fill="white"/>
<circle cx="711.709" cy="44.9582" r="7.29167" fill="white"/>
<circle cx="551.292" cy="65.3752" r="7.29167" fill="white"/>
<circle cx="565.875" cy="65.3752" r="7.29167" fill="white"/>
<circle cx="580.459" cy="65.3752" r="7.29167" fill="white"/>
<circle cx="595.042" cy="65.3752" r="7.29167" fill="white"/>
<circle cx="609.625" cy="65.3752" r="7.29167" fill="white"/>
<circle cx="624.209" cy="65.3752" r="7.29167" fill="white"/>
<circle cx="638.792" cy="65.3752" r="7.29167" fill="white"/>
<circle cx="653.375" cy="65.3752" r="7.29167" fill="white"/>
<circle cx="667.959" cy="65.3752" r="7.29167" fill="white"/>
<circle cx="682.542" cy="65.3752" r="7.29167" fill="white"/>
<circle cx="697.125" cy="65.3752" r="7.29167" fill="white"/>
<circle cx="711.709" cy="65.3752" r="7.29167" fill="white"/>
<circle cx="551.292" cy="85.7917" r="7.29167" fill="white"/>
<circle cx="565.875" cy="85.7917" r="7.29167" fill="white"/>
<circle cx="580.459" cy="85.7917" r="7.29167" fill="white"/>
<circle cx="595.042" cy="85.7917" r="7.29167" fill="white"/>
<circle cx="609.625" cy="85.7917" r="7.29167" fill="white"/>
<circle cx="624.209" cy="85.7917" r="7.29167" fill="white"/>
<circle cx="638.792" cy="85.7917" r="7.29167" fill="white"/>
<circle cx="653.375" cy="85.7917" r="7.29167" fill="white"/>
<circle cx="667.959" cy="85.7917" r="7.29167" fill="white"/>
<circle cx="682.542" cy="85.7917" r="7.29167" fill="white"/>
<circle cx="697.125" cy="85.7917" r="7.29167" fill="white"/>
<circle cx="711.709" cy="85.7917" r="7.29167" fill="white"/>
<circle cx="551.292" cy="106.208" r="7.29167" fill="white"/>
<circle cx="565.875" cy="106.208" r="7.29167" fill="white"/>
<circle cx="580.459" cy="106.208" r="7.29167" fill="white"/>
<circle cx="595.042" cy="106.208" r="7.29167" fill="white"/>
<circle cx="609.625" cy="106.208" r="7.29167" fill="white"/>
<circle cx="624.209" cy="106.208" r="7.29167" fill="white"/>
<circle cx="638.792" cy="106.208" r="7.29167" fill="white"/>
<circle cx="653.375" cy="106.208" r="7.29167" fill="white"/>
<circle cx="667.959" cy="106.208" r="7.29167" fill="white"/>
<circle cx="682.542" cy="106.208" r="7.29167" fill="white"/>
<circle cx="697.125" cy="106.208" r="7.29167" fill="white"/>
<circle cx="711.709" cy="106.208" r="7.29167" fill="white"/>
<circle cx="551.292" cy="126.625" r="7.29167" fill="white"/>
<circle cx="565.875" cy="126.625" r="7.29167" fill="white"/>
<circle cx="580.459" cy="126.625" r="7.29167" fill="white"/>
<circle cx="595.042" cy="126.625" r="7.29167" fill="white"/>
<circle cx="609.625" cy="126.625" r="7.29167" fill="white"/>
<circle cx="624.209" cy="126.625" r="7.29167" fill="white"/>
<circle cx="638.792" cy="126.625" r="7.29167" fill="white"/>
<circle cx="653.375" cy="126.625" r="7.29167" fill="white"/>
<circle cx="667.959" cy="126.625" r="7.29167" fill="white"/>
<circle cx="682.542" cy="126.625" r="7.29167" fill="white"/>
<circle cx="697.125" cy="126.625" r="7.29167" fill="white"/>
<circle cx="711.709" cy="126.625" r="7.29167" fill="white"/>
<circle cx="726.292" cy="4.12516" r="7.29167" fill="white"/>
<circle cx="740.875" cy="4.12516" r="7.29167" fill="white"/>
<circle cx="755.459" cy="4.12516" r="7.29167" fill="white"/>
<circle cx="770.042" cy="4.12516" r="7.29167" fill="white"/>
<circle cx="784.625" cy="4.12516" r="7.29167" fill="white"/>
<circle cx="799.209" cy="4.12516" r="7.29167" fill="white"/>
<circle cx="813.792" cy="4.12516" r="7.29167" fill="white"/>
<circle cx="828.375" cy="4.12516" r="7.29167" fill="white"/>
<circle cx="842.959" cy="4.12516" r="7.29167" fill="white"/>
<circle cx="857.542" cy="4.12516" r="7.29167" fill="white"/>
<circle cx="872.125" cy="4.12516" r="7.29167" fill="white"/>
<circle cx="886.709" cy="4.12516" r="7.29167" fill="white"/>
<circle cx="726.292" cy="24.5417" r="7.29167" fill="white"/>
<circle cx="740.875" cy="24.5417" r="7.29167" fill="white"/>
<circle cx="755.459" cy="24.5417" r="7.29167" fill="white"/>
<circle cx="770.042" cy="24.5417" r="7.29167" fill="white"/>
<circle cx="784.625" cy="24.5417" r="7.29167" fill="white"/>
<circle cx="799.209" cy="24.5417" r="7.29167" fill="white"/>
<circle cx="813.792" cy="24.5417" r="7.29167" fill="white"/>
<circle cx="828.375" cy="24.5417" r="7.29167" fill="white"/>
<circle cx="842.959" cy="24.5417" r="7.29167" fill="white"/>
<circle cx="857.542" cy="24.5417" r="7.29167" fill="white"/>
<circle cx="872.125" cy="24.5417" r="7.29167" fill="white"/>
<circle cx="886.709" cy="24.5417" r="7.29167" fill="white"/>
<circle cx="726.292" cy="44.9582" r="7.29167" fill="white"/>
<circle cx="740.875" cy="44.9582" r="7.29167" fill="white"/>
<circle cx="755.459" cy="44.9582" r="7.29167" fill="white"/>
<circle cx="770.042" cy="44.9582" r="7.29167" fill="white"/>
<circle cx="784.625" cy="44.9582" r="7.29167" fill="white"/>
<circle cx="799.209" cy="44.9582" r="7.29167" fill="white"/>
<circle cx="813.792" cy="44.9582" r="7.29167" fill="white"/>
<circle cx="828.375" cy="44.9582" r="7.29167" fill="white"/>
<circle cx="842.959" cy="44.9582" r="7.29167" fill="white"/>
<circle cx="857.542" cy="44.9582" r="7.29167" fill="white"/>
<circle cx="872.125" cy="44.9582" r="7.29167" fill="white"/>
<circle cx="886.709" cy="44.9582" r="7.29167" fill="white"/>
<circle cx="726.292" cy="65.3752" r="7.29167" fill="white"/>
<circle cx="740.875" cy="65.3752" r="7.29167" fill="white"/>
<circle cx="755.459" cy="65.3752" r="7.29167" fill="white"/>
<circle cx="770.042" cy="65.3752" r="7.29167" fill="white"/>
<circle cx="784.625" cy="65.3752" r="7.29167" fill="white"/>
<circle cx="799.209" cy="65.3752" r="7.29167" fill="white"/>
<circle cx="813.792" cy="65.3752" r="7.29167" fill="white"/>
<circle cx="828.375" cy="65.3752" r="7.29167" fill="white"/>
<circle cx="842.959" cy="65.3752" r="7.29167" fill="white"/>
<circle cx="857.542" cy="65.3752" r="7.29167" fill="white"/>
<circle cx="872.125" cy="65.3752" r="7.29167" fill="white"/>
<circle cx="886.709" cy="65.3752" r="7.29167" fill="white"/>
<circle cx="726.292" cy="85.7917" r="7.29167" fill="white"/>
<circle cx="740.875" cy="85.7917" r="7.29167" fill="white"/>
<circle cx="755.459" cy="85.7917" r="7.29167" fill="white"/>
<circle cx="770.042" cy="85.7917" r="7.29167" fill="white"/>
<circle cx="784.625" cy="85.7917" r="7.29167" fill="white"/>
<circle cx="799.209" cy="85.7917" r="7.29167" fill="white"/>
<circle cx="813.792" cy="85.7917" r="7.29167" fill="white"/>
<circle cx="828.375" cy="85.7917" r="7.29167" fill="white"/>
<circle cx="842.959" cy="85.7917" r="7.29167" fill="white"/>
<circle cx="857.542" cy="85.7917" r="7.29167" fill="white"/>
<circle cx="872.125" cy="85.7917" r="7.29167" fill="white"/>
<circle cx="886.709" cy="85.7917" r="7.29167" fill="white"/>
<circle cx="726.292" cy="106.208" r="7.29167" fill="white"/>
<circle cx="740.875" cy="106.208" r="7.29167" fill="white"/>
<circle cx="755.459" cy="106.208" r="7.29167" fill="white"/>
<circle cx="770.042" cy="106.208" r="7.29167" fill="white"/>
<circle cx="784.625" cy="106.208" r="7.29167" fill="white"/>
<circle cx="799.209" cy="106.208" r="7.29167" fill="white"/>
<circle cx="813.792" cy="106.208" r="7.29167" fill="white"/>
<circle cx="828.375" cy="106.208" r="7.29167" fill="white"/>
<circle cx="842.959" cy="106.208" r="7.29167" fill="white"/>
<circle cx="857.542" cy="106.208" r="7.29167" fill="white"/>
<circle cx="872.125" cy="106.208" r="7.29167" fill="white"/>
<circle cx="886.709" cy="106.208" r="7.29167" fill="white"/>
<circle cx="726.292" cy="126.625" r="7.29167" fill="white"/>
<circle cx="740.875" cy="126.625" r="7.29167" fill="white"/>
<circle cx="755.459" cy="126.625" r="7.29167" fill="white"/>
<circle cx="770.042" cy="126.625" r="7.29167" fill="white"/>
<circle cx="784.625" cy="126.625" r="7.29167" fill="white"/>
<circle cx="799.209" cy="126.625" r="7.29167" fill="white"/>
<circle cx="813.792" cy="126.625" r="7.29167" fill="white"/>
<circle cx="828.375" cy="126.625" r="7.29167" fill="white"/>
<circle cx="842.959" cy="126.625" r="7.29167" fill="white"/>
<circle cx="857.542" cy="126.625" r="7.29167" fill="white"/>
<circle cx="872.125" cy="126.625" r="7.29167" fill="white"/>
<circle cx="886.709" cy="126.625" r="7.29167" fill="white"/>
<circle cx="551.292" cy="147.917" r="7.29167" fill="white"/>
<circle cx="565.875" cy="147.917" r="7.29167" fill="white"/>
<circle cx="580.459" cy="147.917" r="7.29167" fill="white"/>
<circle cx="595.042" cy="147.917" r="7.29167" fill="white"/>
<circle cx="609.625" cy="147.917" r="7.29167" fill="white"/>
<circle cx="624.209" cy="147.917" r="7.29167" fill="white"/>
<circle cx="638.792" cy="147.917" r="7.29167" fill="white"/>
<circle cx="653.375" cy="147.917" r="7.29167" fill="white"/>
<circle cx="667.959" cy="147.917" r="7.29167" fill="white"/>
<circle cx="682.542" cy="147.917" r="7.29167" fill="white"/>
<circle cx="697.125" cy="147.917" r="7.29167" fill="white"/>
<circle cx="711.709" cy="147.917" r="7.29167" fill="white"/>
<circle cx="551.292" cy="168.333" r="7.29167" fill="white"/>
<circle cx="565.875" cy="168.333" r="7.29167" fill="white"/>
<circle cx="580.459" cy="168.333" r="7.29167" fill="white"/>
<circle cx="595.042" cy="168.333" r="7.29167" fill="white"/>
<circle cx="609.625" cy="168.333" r="7.29167" fill="white"/>
<circle cx="624.209" cy="168.333" r="7.29167" fill="white"/>
<circle cx="638.792" cy="168.333" r="7.29167" fill="white"/>
<circle cx="653.375" cy="168.333" r="7.29167" fill="white"/>
<circle cx="667.959" cy="168.333" r="7.29167" fill="white"/>
<circle cx="682.542" cy="168.333" r="7.29167" fill="white"/>
<circle cx="697.125" cy="168.333" r="7.29167" fill="white"/>
<circle cx="711.709" cy="168.333" r="7.29167" fill="white"/>
<circle cx="551.292" cy="188.75" r="7.29167" fill="white"/>
<circle cx="565.875" cy="188.75" r="7.29167" fill="white"/>
<circle cx="580.459" cy="188.75" r="7.29167" fill="white"/>
<circle cx="595.042" cy="188.75" r="7.29167" fill="white"/>
<circle cx="609.625" cy="188.75" r="7.29167" fill="white"/>
<circle cx="624.209" cy="188.75" r="7.29167" fill="white"/>
<circle cx="638.792" cy="188.75" r="7.29167" fill="white"/>
<circle cx="653.375" cy="188.75" r="7.29167" fill="white"/>
<circle cx="667.959" cy="188.75" r="7.29167" fill="white"/>
<circle cx="682.542" cy="188.75" r="7.29167" fill="white"/>
<circle cx="697.125" cy="188.75" r="7.29167" fill="white"/>
<circle cx="711.709" cy="188.75" r="7.29167" fill="white"/>
<circle cx="551.292" cy="209.167" r="7.29167" fill="white"/>
<circle cx="565.875" cy="209.167" r="7.29167" fill="white"/>
<circle cx="580.459" cy="209.167" r="7.29167" fill="white"/>
<circle cx="595.042" cy="209.167" r="7.29167" fill="white"/>
<circle cx="609.625" cy="209.167" r="7.29167" fill="white"/>
<circle cx="624.209" cy="209.167" r="7.29167" fill="white"/>
<circle cx="638.792" cy="209.167" r="7.29167" fill="white"/>
<circle cx="653.375" cy="209.167" r="7.29167" fill="white"/>
<circle cx="667.959" cy="209.167" r="7.29167" fill="white"/>
<circle cx="682.542" cy="209.167" r="7.29167" fill="white"/>
<circle cx="697.125" cy="209.167" r="7.29167" fill="white"/>
<circle cx="711.709" cy="209.167" r="7.29167" fill="white"/>
<circle cx="551.292" cy="229.583" r="7.29167" fill="white"/>
<circle cx="565.875" cy="229.583" r="7.29167" fill="white"/>
<circle cx="580.459" cy="229.583" r="7.29167" fill="white"/>
<circle cx="595.042" cy="229.583" r="7.29167" fill="white"/>
<circle cx="609.625" cy="229.583" r="7.29167" fill="white"/>
<circle cx="624.209" cy="229.583" r="7.29167" fill="white"/>
<circle cx="638.792" cy="229.583" r="7.29167" fill="white"/>
<circle cx="653.375" cy="229.583" r="7.29167" fill="white"/>
<circle cx="667.959" cy="229.583" r="7.29167" fill="white"/>
<circle cx="682.542" cy="229.583" r="7.29167" fill="white"/>
<circle cx="697.125" cy="229.583" r="7.29167" fill="white"/>
<circle cx="711.709" cy="229.583" r="7.29167" fill="white"/>
<circle cx="551.292" cy="250" r="7.29167" fill="white"/>
<circle cx="565.875" cy="250" r="7.29167" fill="white"/>
<circle cx="580.459" cy="250" r="7.29167" fill="white"/>
<circle cx="595.042" cy="250" r="7.29167" fill="white"/>
<circle cx="609.625" cy="250" r="7.29167" fill="white"/>
<circle cx="624.209" cy="250" r="7.29167" fill="white"/>
<circle cx="638.792" cy="250" r="7.29167" fill="white"/>
<circle cx="653.375" cy="250" r="7.29167" fill="white"/>
<circle cx="667.959" cy="250" r="7.29167" fill="white"/>
<circle cx="682.542" cy="250" r="7.29167" fill="white"/>
<circle cx="697.125" cy="250" r="7.29167" fill="white"/>
<circle cx="711.709" cy="250" r="7.29167" fill="white"/>
<circle cx="551.292" cy="270.417" r="7.29167" fill="white"/>
<circle cx="565.875" cy="270.417" r="7.29167" fill="white"/>
<circle cx="580.459" cy="270.417" r="7.29167" fill="white"/>
<circle cx="595.042" cy="270.417" r="7.29167" fill="white"/>
<circle cx="609.625" cy="270.417" r="7.29167" fill="white"/>
<circle cx="624.209" cy="270.417" r="7.29167" fill="white"/>
<circle cx="638.792" cy="270.417" r="7.29167" fill="white"/>
<circle cx="653.375" cy="270.417" r="7.29167" fill="white"/>
<circle cx="667.959" cy="270.417" r="7.29167" fill="white"/>
<circle cx="682.542" cy="270.417" r="7.29167" fill="white"/>
<circle cx="697.125" cy="270.417" r="7.29167" fill="white"/>
<circle cx="711.709" cy="270.417" r="7.29167" fill="white"/>
<circle cx="726.292" cy="147.917" r="7.29167" fill="white"/>
<circle cx="740.875" cy="147.917" r="7.29167" fill="white"/>
<circle cx="755.459" cy="147.917" r="7.29167" fill="white"/>
<circle cx="770.042" cy="147.917" r="7.29167" fill="white"/>
<circle cx="784.625" cy="147.917" r="7.29167" fill="white"/>
<circle cx="799.209" cy="147.917" r="7.29167" fill="white"/>
<circle cx="813.792" cy="147.917" r="7.29167" fill="white"/>
<circle cx="828.375" cy="147.917" r="7.29167" fill="white"/>
<circle cx="842.959" cy="147.917" r="7.29167" fill="white"/>
<circle cx="857.542" cy="147.917" r="7.29167" fill="white"/>
<circle cx="872.125" cy="147.917" r="7.29167" fill="white"/>
<circle cx="886.709" cy="147.917" r="7.29167" fill="white"/>
<circle cx="726.292" cy="168.333" r="7.29167" fill="white"/>
<circle cx="740.875" cy="168.333" r="7.29167" fill="white"/>
<circle cx="755.459" cy="168.333" r="7.29167" fill="white"/>
<circle cx="770.042" cy="168.333" r="7.29167" fill="white"/>
<circle cx="784.625" cy="168.333" r="7.29167" fill="white"/>
<circle cx="799.209" cy="168.333" r="7.29167" fill="white"/>
<circle cx="813.792" cy="168.333" r="7.29167" fill="white"/>
<circle cx="828.375" cy="168.333" r="7.29167" fill="white"/>
<circle cx="842.959" cy="168.333" r="7.29167" fill="white"/>
<circle cx="857.542" cy="168.333" r="7.29167" fill="white"/>
<circle cx="872.125" cy="168.333" r="7.29167" fill="white"/>
<circle cx="886.709" cy="168.333" r="7.29167" fill="white"/>
<circle cx="726.292" cy="188.75" r="7.29167" fill="white"/>
<circle cx="740.875" cy="188.75" r="7.29167" fill="white"/>
<circle cx="755.459" cy="188.75" r="7.29167" fill="white"/>
<circle cx="770.042" cy="188.75" r="7.29167" fill="white"/>
<circle cx="784.625" cy="188.75" r="7.29167" fill="white"/>
<circle cx="799.209" cy="188.75" r="7.29167" fill="white"/>
<circle cx="813.792" cy="188.75" r="7.29167" fill="white"/>
<circle cx="828.375" cy="188.75" r="7.29167" fill="white"/>
<circle cx="842.959" cy="188.75" r="7.29167" fill="white"/>
<circle cx="857.542" cy="188.75" r="7.29167" fill="white"/>
<circle cx="872.125" cy="188.75" r="7.29167" fill="white"/>
<circle cx="886.709" cy="188.75" r="7.29167" fill="white"/>
<circle cx="726.292" cy="209.167" r="7.29167" fill="white"/>
<circle cx="740.875" cy="209.167" r="7.29167" fill="white"/>
<circle cx="755.459" cy="209.167" r="7.29167" fill="white"/>
<circle cx="770.042" cy="209.167" r="7.29167" fill="white"/>
<circle cx="784.625" cy="209.167" r="7.29167" fill="white"/>
<circle cx="799.209" cy="209.167" r="7.29167" fill="white"/>
<circle cx="813.792" cy="209.167" r="7.29167" fill="white"/>
<circle cx="828.375" cy="209.167" r="7.29167" fill="white"/>
<circle cx="842.959" cy="209.167" r="7.29167" fill="white"/>
<circle cx="857.542" cy="209.167" r="7.29167" fill="white"/>
<circle cx="872.125" cy="209.167" r="7.29167" fill="white"/>
<circle cx="886.709" cy="209.167" r="7.29167" fill="white"/>
<circle cx="726.292" cy="229.583" r="7.29167" fill="white"/>
<circle cx="740.875" cy="229.583" r="7.29167" fill="white"/>
<circle cx="755.459" cy="229.583" r="7.29167" fill="white"/>
<circle cx="770.042" cy="229.583" r="7.29167" fill="white"/>
<circle cx="784.625" cy="229.583" r="7.29167" fill="white"/>
<circle cx="799.209" cy="229.583" r="7.29167" fill="white"/>
<circle cx="813.792" cy="229.583" r="7.29167" fill="white"/>
<circle cx="828.375" cy="229.583" r="7.29167" fill="white"/>
<circle cx="842.959" cy="229.583" r="7.29167" fill="white"/>
<circle cx="857.542" cy="229.583" r="7.29167" fill="white"/>
<circle cx="872.125" cy="229.583" r="7.29167" fill="white"/>
<circle cx="886.709" cy="229.583" r="7.29167" fill="white"/>
<circle cx="726.292" cy="250" r="7.29167" fill="white"/>
<circle cx="740.875" cy="250" r="7.29167" fill="white"/>
<circle cx="755.459" cy="250" r="7.29167" fill="white"/>
<circle cx="770.042" cy="250" r="7.29167" fill="white"/>
<circle cx="784.625" cy="250" r="7.29167" fill="white"/>
<circle cx="799.209" cy="250" r="7.29167" fill="white"/>
<circle cx="813.792" cy="250" r="7.29167" fill="white"/>
<circle cx="828.375" cy="250" r="7.29167" fill="white"/>
<circle cx="842.959" cy="250" r="7.29167" fill="white"/>
<circle cx="857.542" cy="250" r="7.29167" fill="white"/>
<circle cx="872.125" cy="250" r="7.29167" fill="white"/>
<circle cx="886.709" cy="250" r="7.29167" fill="white"/>
<circle cx="726.292" cy="270.417" r="7.29167" fill="white"/>
<circle cx="740.875" cy="270.417" r="7.29167" fill="white"/>
<circle cx="755.459" cy="270.417" r="7.29167" fill="white"/>
<circle cx="770.042" cy="270.417" r="7.29167" fill="white"/>
<circle cx="784.625" cy="270.417" r="7.29167" fill="white"/>
<circle cx="799.209" cy="270.417" r="7.29167" fill="white"/>
<circle cx="813.792" cy="270.417" r="7.29167" fill="white"/>
<circle cx="828.375" cy="270.417" r="7.29167" fill="white"/>
<circle cx="842.959" cy="270.417" r="7.29167" fill="white"/>
<circle cx="857.542" cy="270.417" r="7.29167" fill="white"/>
<circle cx="872.125" cy="270.417" r="7.29167" fill="white"/>
<circle cx="886.709" cy="270.417" r="7.29167" fill="white"/>
<circle cx="901.292" cy="4.12516" r="7.29167" fill="white"/>
<circle cx="915.875" cy="4.12516" r="7.29167" fill="white"/>
<circle cx="930.459" cy="4.12516" r="7.29167" fill="white"/>
<circle cx="945.042" cy="4.12516" r="7.29167" fill="white"/>
<circle cx="959.625" cy="4.12516" r="7.29167" fill="white"/>
<circle cx="974.209" cy="4.12516" r="7.29167" fill="white"/>
<circle cx="988.792" cy="4.12516" r="7.29167" fill="white"/>
<circle cx="1003.37" cy="4.12516" r="7.29167" fill="white"/>
<circle cx="1017.96" cy="4.12516" r="7.29167" fill="white"/>
<circle cx="1032.54" cy="4.12516" r="7.29167" fill="white"/>
<circle cx="1047.12" cy="4.12516" r="7.29167" fill="white"/>
<circle cx="1061.71" cy="4.12516" r="7.29167" fill="white"/>
<circle cx="901.292" cy="24.5417" r="7.29167" fill="white"/>
<circle cx="915.875" cy="24.5417" r="7.29167" fill="white"/>
<circle cx="930.459" cy="24.5417" r="7.29167" fill="white"/>
<circle cx="945.042" cy="24.5417" r="7.29167" fill="white"/>
<circle cx="959.625" cy="24.5417" r="7.29167" fill="white"/>
<circle cx="974.209" cy="24.5417" r="7.29167" fill="white"/>
<circle cx="988.792" cy="24.5417" r="7.29167" fill="white"/>
<circle cx="1003.37" cy="24.5417" r="7.29167" fill="white"/>
<circle cx="1017.96" cy="24.5417" r="7.29167" fill="white"/>
<circle cx="1032.54" cy="24.5417" r="7.29167" fill="white"/>
<circle cx="1047.12" cy="24.5417" r="7.29167" fill="white"/>
<circle cx="1061.71" cy="24.5417" r="7.29167" fill="white"/>
<circle cx="901.292" cy="44.9582" r="7.29167" fill="white"/>
<circle cx="915.875" cy="44.9582" r="7.29167" fill="white"/>
<circle cx="930.459" cy="44.9582" r="7.29167" fill="white"/>
<circle cx="945.042" cy="44.9582" r="7.29167" fill="white"/>
<circle cx="959.625" cy="44.9582" r="7.29167" fill="white"/>
<circle cx="974.209" cy="44.9582" r="7.29167" fill="white"/>
<circle cx="988.792" cy="44.9582" r="7.29167" fill="white"/>
<circle cx="1003.37" cy="44.9582" r="7.29167" fill="white"/>
<circle cx="1017.96" cy="44.9582" r="7.29167" fill="white"/>
<circle cx="1032.54" cy="44.9582" r="7.29167" fill="white"/>
<circle cx="1047.12" cy="44.9582" r="7.29167" fill="white"/>
<circle cx="1061.71" cy="44.9582" r="7.29167" fill="white"/>
<circle cx="901.292" cy="65.3752" r="7.29167" fill="white"/>
<circle cx="915.875" cy="65.3752" r="7.29167" fill="white"/>
<circle cx="930.459" cy="65.3752" r="7.29167" fill="white"/>
<circle cx="945.042" cy="65.3752" r="7.29167" fill="white"/>
<circle cx="959.625" cy="65.3752" r="7.29167" fill="white"/>
<circle cx="974.209" cy="65.3752" r="7.29167" fill="white"/>
<circle cx="988.792" cy="65.3752" r="7.29167" fill="white"/>
<circle cx="1003.37" cy="65.3752" r="7.29167" fill="white"/>
<circle cx="1017.96" cy="65.3752" r="7.29167" fill="white"/>
<circle cx="1032.54" cy="65.3752" r="7.29167" fill="white"/>
<circle cx="1047.12" cy="65.3752" r="7.29167" fill="white"/>
<circle cx="1061.71" cy="65.3752" r="7.29167" fill="white"/>
<circle cx="901.292" cy="85.7917" r="7.29167" fill="white"/>
<circle cx="915.875" cy="85.7917" r="7.29167" fill="white"/>
<circle cx="930.459" cy="85.7917" r="7.29167" fill="white"/>
<circle cx="945.042" cy="85.7917" r="7.29167" fill="white"/>
<circle cx="959.625" cy="85.7917" r="7.29167" fill="white"/>
<circle cx="974.209" cy="85.7917" r="7.29167" fill="white"/>
<circle cx="988.792" cy="85.7917" r="7.29167" fill="white"/>
<circle cx="1003.37" cy="85.7917" r="7.29167" fill="white"/>
<circle cx="1017.96" cy="85.7917" r="7.29167" fill="white"/>
<circle cx="1032.54" cy="85.7917" r="7.29167" fill="white"/>
<circle cx="1047.12" cy="85.7917" r="7.29167" fill="white"/>
<circle cx="1061.71" cy="85.7917" r="7.29167" fill="white"/>
<circle cx="901.292" cy="106.208" r="7.29167" fill="white"/>
<circle cx="915.875" cy="106.208" r="7.29167" fill="white"/>
<circle cx="930.459" cy="106.208" r="7.29167" fill="white"/>
<circle cx="945.042" cy="106.208" r="7.29167" fill="white"/>
<circle cx="959.625" cy="106.208" r="7.29167" fill="white"/>
<circle cx="974.209" cy="106.208" r="7.29167" fill="white"/>
<circle cx="988.792" cy="106.208" r="7.29167" fill="white"/>
<circle cx="1003.37" cy="106.208" r="7.29167" fill="white"/>
<circle cx="1017.96" cy="106.208" r="7.29167" fill="white"/>
<circle cx="1032.54" cy="106.208" r="7.29167" fill="white"/>
<circle cx="1047.12" cy="106.208" r="7.29167" fill="white"/>
<circle cx="1061.71" cy="106.208" r="7.29167" fill="white"/>
<circle cx="901.292" cy="126.625" r="7.29167" fill="white"/>
<circle cx="915.875" cy="126.625" r="7.29167" fill="white"/>
<circle cx="930.459" cy="126.625" r="7.29167" fill="white"/>
<circle cx="945.042" cy="126.625" r="7.29167" fill="white"/>
<circle cx="959.625" cy="126.625" r="7.29167" fill="white"/>
<circle cx="974.209" cy="126.625" r="7.29167" fill="white"/>
<circle cx="988.792" cy="126.625" r="7.29167" fill="white"/>
<circle cx="1003.37" cy="126.625" r="7.29167" fill="white"/>
<circle cx="1017.96" cy="126.625" r="7.29167" fill="white"/>
<circle cx="1032.54" cy="126.625" r="7.29167" fill="white"/>
<circle cx="1047.12" cy="126.625" r="7.29167" fill="white"/>
<circle cx="1061.71" cy="126.625" r="7.29167" fill="white"/>
<circle cx="1076.29" cy="4.12516" r="7.29167" fill="white"/>
<circle cx="1090.87" cy="4.12516" r="7.29167" fill="white"/>
<circle cx="1105.46" cy="4.12516" r="7.29167" fill="white"/>
<circle cx="1120.04" cy="4.12516" r="7.29167" fill="white"/>
<circle cx="1134.62" cy="4.12516" r="7.29167" fill="white"/>
<circle cx="1149.21" cy="4.12516" r="7.29167" fill="white"/>
<circle cx="1163.79" cy="4.12516" r="7.29167" fill="white"/>
<circle cx="1178.37" cy="4.12516" r="7.29167" fill="white"/>
<circle cx="1192.96" cy="4.12516" r="7.29167" fill="white"/>
<circle cx="1207.54" cy="4.12516" r="7.29167" fill="white"/>
<circle cx="1222.12" cy="4.12516" r="7.29167" fill="white"/>
<circle cx="1236.71" cy="4.12516" r="7.29167" fill="white"/>
<circle cx="1076.29" cy="24.5417" r="7.29167" fill="white"/>
<circle cx="1090.87" cy="24.5417" r="7.29167" fill="white"/>
<circle cx="1105.46" cy="24.5417" r="7.29167" fill="white"/>
<circle cx="1120.04" cy="24.5417" r="7.29167" fill="white"/>
<circle cx="1134.62" cy="24.5417" r="7.29167" fill="white"/>
<circle cx="1149.21" cy="24.5417" r="7.29167" fill="white"/>
<circle cx="1163.79" cy="24.5417" r="7.29167" fill="white"/>
<circle cx="1178.37" cy="24.5417" r="7.29167" fill="white"/>
<circle cx="1192.96" cy="24.5417" r="7.29167" fill="white"/>
<circle cx="1207.54" cy="24.5417" r="7.29167" fill="white"/>
<circle cx="1222.12" cy="24.5417" r="7.29167" fill="white"/>
<circle cx="1236.71" cy="24.5417" r="7.29167" fill="white"/>
<circle cx="1076.29" cy="44.9582" r="7.29167" fill="white"/>
<circle cx="1090.87" cy="44.9582" r="7.29167" fill="white"/>
<circle cx="1105.46" cy="44.9582" r="7.29167" fill="white"/>
<circle cx="1120.04" cy="44.9582" r="7.29167" fill="white"/>
<circle cx="1134.62" cy="44.9582" r="7.29167" fill="white"/>
<circle cx="1149.21" cy="44.9582" r="7.29167" fill="white"/>
<circle cx="1163.79" cy="44.9582" r="7.29167" fill="white"/>
<circle cx="1178.37" cy="44.9582" r="7.29167" fill="white"/>
<circle cx="1192.96" cy="44.9582" r="7.29167" fill="white"/>
<circle cx="1207.54" cy="44.9582" r="7.29167" fill="white"/>
<circle cx="1222.12" cy="44.9582" r="7.29167" fill="white"/>
<circle cx="1236.71" cy="44.9582" r="7.29167" fill="white"/>
<circle cx="1076.29" cy="65.3752" r="7.29167" fill="white"/>
<circle cx="1090.87" cy="65.3752" r="7.29167" fill="white"/>
<circle cx="1105.46" cy="65.3752" r="7.29167" fill="white"/>
<circle cx="1120.04" cy="65.3752" r="7.29167" fill="white"/>
<circle cx="1134.62" cy="65.3752" r="7.29167" fill="white"/>
<circle cx="1149.21" cy="65.3752" r="7.29167" fill="white"/>
<circle cx="1163.79" cy="65.3752" r="7.29167" fill="white"/>
<circle cx="1178.37" cy="65.3752" r="7.29167" fill="white"/>
<circle cx="1192.96" cy="65.3752" r="7.29167" fill="white"/>
<circle cx="1207.54" cy="65.3752" r="7.29167" fill="white"/>
<circle cx="1222.12" cy="65.3752" r="7.29167" fill="white"/>
<circle cx="1236.71" cy="65.3752" r="7.29167" fill="white"/>
<circle cx="1076.29" cy="85.7917" r="7.29167" fill="white"/>
<circle cx="1090.87" cy="85.7917" r="7.29167" fill="white"/>
<circle cx="1105.46" cy="85.7917" r="7.29167" fill="white"/>
<circle cx="1120.04" cy="85.7917" r="7.29167" fill="white"/>
<circle cx="1134.62" cy="85.7917" r="7.29167" fill="white"/>
<circle cx="1149.21" cy="85.7917" r="7.29167" fill="white"/>
<circle cx="1163.79" cy="85.7917" r="7.29167" fill="white"/>
<circle cx="1178.37" cy="85.7917" r="7.29167" fill="white"/>
<circle cx="1192.96" cy="85.7917" r="7.29167" fill="white"/>
<circle cx="1207.54" cy="85.7917" r="7.29167" fill="white"/>
<circle cx="1222.12" cy="85.7917" r="7.29167" fill="white"/>
<circle cx="1236.71" cy="85.7917" r="7.29167" fill="white"/>
<circle cx="1076.29" cy="106.208" r="7.29167" fill="white"/>
<circle cx="1090.87" cy="106.208" r="7.29167" fill="white"/>
<circle cx="1105.46" cy="106.208" r="7.29167" fill="white"/>
<circle cx="1120.04" cy="106.208" r="7.29167" fill="white"/>
<circle cx="1134.62" cy="106.208" r="7.29167" fill="white"/>
<circle cx="1149.21" cy="106.208" r="7.29167" fill="white"/>
<circle cx="1163.79" cy="106.208" r="7.29167" fill="white"/>
<circle cx="1178.37" cy="106.208" r="7.29167" fill="white"/>
<circle cx="1192.96" cy="106.208" r="7.29167" fill="white"/>
<circle cx="1207.54" cy="106.208" r="7.29167" fill="white"/>
<circle cx="1222.12" cy="106.208" r="7.29167" fill="white"/>
<circle cx="1236.71" cy="106.208" r="7.29167" fill="white"/>
<circle cx="1076.29" cy="126.625" r="7.29167" fill="white"/>
<circle cx="1090.87" cy="126.625" r="7.29167" fill="white"/>
<circle cx="1105.46" cy="126.625" r="7.29167" fill="white"/>
<circle cx="1120.04" cy="126.625" r="7.29167" fill="white"/>
<circle cx="1134.62" cy="126.625" r="7.29167" fill="white"/>
<circle cx="1149.21" cy="126.625" r="7.29167" fill="white"/>
<circle cx="1163.79" cy="126.625" r="7.29167" fill="white"/>
<circle cx="1178.37" cy="126.625" r="7.29167" fill="white"/>
<circle cx="1192.96" cy="126.625" r="7.29167" fill="white"/>
<circle cx="1207.54" cy="126.625" r="7.29167" fill="white"/>
<circle cx="1222.12" cy="126.625" r="7.29167" fill="white"/>
<circle cx="1236.71" cy="126.625" r="7.29167" fill="white"/>
<circle cx="901.292" cy="147.917" r="7.29167" fill="white"/>
<circle cx="915.875" cy="147.917" r="7.29167" fill="white"/>
<circle cx="930.459" cy="147.917" r="7.29167" fill="white"/>
<circle cx="945.042" cy="147.917" r="7.29167" fill="white"/>
<circle cx="959.625" cy="147.917" r="7.29167" fill="white"/>
<circle cx="974.209" cy="147.917" r="7.29167" fill="white"/>
<circle cx="988.792" cy="147.917" r="7.29167" fill="white"/>
<circle cx="1003.37" cy="147.917" r="7.29167" fill="white"/>
<circle cx="1017.96" cy="147.917" r="7.29167" fill="white"/>
<circle cx="1032.54" cy="147.917" r="7.29167" fill="white"/>
<circle cx="1047.12" cy="147.917" r="7.29167" fill="white"/>
<circle cx="1061.71" cy="147.917" r="7.29167" fill="white"/>
<circle cx="901.292" cy="168.333" r="7.29167" fill="white"/>
<circle cx="915.875" cy="168.333" r="7.29167" fill="white"/>
<circle cx="930.459" cy="168.333" r="7.29167" fill="white"/>
<circle cx="945.042" cy="168.333" r="7.29167" fill="white"/>
<circle cx="959.625" cy="168.333" r="7.29167" fill="white"/>
<circle cx="974.209" cy="168.333" r="7.29167" fill="white"/>
<circle cx="988.792" cy="168.333" r="7.29167" fill="white"/>
<circle cx="1003.37" cy="168.333" r="7.29167" fill="white"/>
<circle cx="1017.96" cy="168.333" r="7.29167" fill="white"/>
<circle cx="1032.54" cy="168.333" r="7.29167" fill="white"/>
<circle cx="1047.12" cy="168.333" r="7.29167" fill="white"/>
<circle cx="1061.71" cy="168.333" r="7.29167" fill="white"/>
<circle cx="901.292" cy="188.75" r="7.29167" fill="white"/>
<circle cx="915.875" cy="188.75" r="7.29167" fill="white"/>
<circle cx="930.459" cy="188.75" r="7.29167" fill="white"/>
<circle cx="945.042" cy="188.75" r="7.29167" fill="white"/>
<circle cx="959.625" cy="188.75" r="7.29167" fill="white"/>
<circle cx="974.209" cy="188.75" r="7.29167" fill="white"/>
<circle cx="988.792" cy="188.75" r="7.29167" fill="white"/>
<circle cx="1003.37" cy="188.75" r="7.29167" fill="white"/>
<circle cx="1017.96" cy="188.75" r="7.29167" fill="white"/>
<circle cx="1032.54" cy="188.75" r="7.29167" fill="white"/>
<circle cx="1047.12" cy="188.75" r="7.29167" fill="white"/>
<circle cx="1061.71" cy="188.75" r="7.29167" fill="white"/>
<circle cx="901.292" cy="209.167" r="7.29167" fill="white"/>
<circle cx="915.875" cy="209.167" r="7.29167" fill="white"/>
<circle cx="930.459" cy="209.167" r="7.29167" fill="white"/>
<circle cx="945.042" cy="209.167" r="7.29167" fill="white"/>
<circle cx="959.625" cy="209.167" r="7.29167" fill="white"/>
<circle cx="974.209" cy="209.167" r="7.29167" fill="white"/>
<circle cx="988.792" cy="209.167" r="7.29167" fill="white"/>
<circle cx="1003.37" cy="209.167" r="7.29167" fill="white"/>
<circle cx="1017.96" cy="209.167" r="7.29167" fill="white"/>
<circle cx="1032.54" cy="209.167" r="7.29167" fill="white"/>
<circle cx="1047.12" cy="209.167" r="7.29167" fill="white"/>
<circle cx="1061.71" cy="209.167" r="7.29167" fill="white"/>
<circle cx="901.292" cy="229.583" r="7.29167" fill="white"/>
<circle cx="915.875" cy="229.583" r="7.29167" fill="white"/>
<circle cx="930.459" cy="229.583" r="7.29167" fill="white"/>
<circle cx="945.042" cy="229.583" r="7.29167" fill="white"/>
<circle cx="959.625" cy="229.583" r="7.29167" fill="white"/>
<circle cx="974.209" cy="229.583" r="7.29167" fill="white"/>
<circle cx="988.792" cy="229.583" r="7.29167" fill="white"/>
<circle cx="1003.37" cy="229.583" r="7.29167" fill="white"/>
<circle cx="1017.96" cy="229.583" r="7.29167" fill="white"/>
<circle cx="1032.54" cy="229.583" r="7.29167" fill="white"/>
<circle cx="1047.12" cy="229.583" r="7.29167" fill="white"/>
<circle cx="1061.71" cy="229.583" r="7.29167" fill="white"/>
<circle cx="901.292" cy="250" r="7.29167" fill="white"/>
<circle cx="915.875" cy="250" r="7.29167" fill="white"/>
<circle cx="930.459" cy="250" r="7.29167" fill="white"/>
<circle cx="945.042" cy="250" r="7.29167" fill="white"/>
<circle cx="959.625" cy="250" r="7.29167" fill="white"/>
<circle cx="974.209" cy="250" r="7.29167" fill="white"/>
<circle cx="988.792" cy="250" r="7.29167" fill="white"/>
<circle cx="1003.37" cy="250" r="7.29167" fill="white"/>
<circle cx="1017.96" cy="250" r="7.29167" fill="white"/>
<circle cx="1032.54" cy="250" r="7.29167" fill="white"/>
<circle cx="1047.12" cy="250" r="7.29167" fill="white"/>
<circle cx="1061.71" cy="250" r="7.29167" fill="white"/>
<circle cx="901.292" cy="270.417" r="7.29167" fill="white"/>
<circle cx="915.875" cy="270.417" r="7.29167" fill="white"/>
<circle cx="930.459" cy="270.417" r="7.29167" fill="white"/>
<circle cx="945.042" cy="270.417" r="7.29167" fill="white"/>
<circle cx="959.625" cy="270.417" r="7.29167" fill="white"/>
<circle cx="974.209" cy="270.417" r="7.29167" fill="white"/>
<circle cx="988.792" cy="270.417" r="7.29167" fill="white"/>
<circle cx="1003.37" cy="270.417" r="7.29167" fill="white"/>
<circle cx="1017.96" cy="270.417" r="7.29167" fill="white"/>
<circle cx="1032.54" cy="270.417" r="7.29167" fill="white"/>
<circle cx="1047.12" cy="270.417" r="7.29167" fill="white"/>
<circle cx="1061.71" cy="270.417" r="7.29167" fill="white"/>
<circle cx="1076.29" cy="147.917" r="7.29167" fill="white"/>
<circle cx="1090.87" cy="147.917" r="7.29167" fill="white"/>
<circle cx="1105.46" cy="147.917" r="7.29167" fill="white"/>
<circle cx="1120.04" cy="147.917" r="7.29167" fill="white"/>
<circle cx="1134.62" cy="147.917" r="7.29167" fill="white"/>
<circle cx="1149.21" cy="147.917" r="7.29167" fill="white"/>
<circle cx="1163.79" cy="147.917" r="7.29167" fill="white"/>
<circle cx="1178.37" cy="147.917" r="7.29167" fill="white"/>
<circle cx="1192.96" cy="147.917" r="7.29167" fill="white"/>
<circle cx="1207.54" cy="147.917" r="7.29167" fill="white"/>
<circle cx="1222.12" cy="147.917" r="7.29167" fill="white"/>
<circle cx="1236.71" cy="147.917" r="7.29167" fill="white"/>
<circle cx="1076.29" cy="168.333" r="7.29167" fill="white"/>
<circle cx="1090.87" cy="168.333" r="7.29167" fill="white"/>
<circle cx="1105.46" cy="168.333" r="7.29167" fill="white"/>
<circle cx="1120.04" cy="168.333" r="7.29167" fill="white"/>
<circle cx="1134.62" cy="168.333" r="7.29167" fill="white"/>
<circle cx="1149.21" cy="168.333" r="7.29167" fill="white"/>
<circle cx="1163.79" cy="168.333" r="7.29167" fill="white"/>
<circle cx="1178.37" cy="168.333" r="7.29167" fill="white"/>
<circle cx="1192.96" cy="168.333" r="7.29167" fill="white"/>
<circle cx="1207.54" cy="168.333" r="7.29167" fill="white"/>
<circle cx="1222.12" cy="168.333" r="7.29167" fill="white"/>
<circle cx="1236.71" cy="168.333" r="7.29167" fill="white"/>
<circle cx="1076.29" cy="188.75" r="7.29167" fill="white"/>
<circle cx="1090.87" cy="188.75" r="7.29167" fill="white"/>
<circle cx="1105.46" cy="188.75" r="7.29167" fill="white"/>
<circle cx="1120.04" cy="188.75" r="7.29167" fill="white"/>
<circle cx="1134.62" cy="188.75" r="7.29167" fill="white"/>
<circle cx="1149.21" cy="188.75" r="7.29167" fill="white"/>
<circle cx="1163.79" cy="188.75" r="7.29167" fill="white"/>
<circle cx="1178.37" cy="188.75" r="7.29167" fill="white"/>
<circle cx="1192.96" cy="188.75" r="7.29167" fill="white"/>
<circle cx="1207.54" cy="188.75" r="7.29167" fill="white"/>
<circle cx="1222.12" cy="188.75" r="7.29167" fill="white"/>
<circle cx="1236.71" cy="188.75" r="7.29167" fill="white"/>
<circle cx="1076.29" cy="209.167" r="7.29167" fill="white"/>
<circle cx="1090.87" cy="209.167" r="7.29167" fill="white"/>
<circle cx="1105.46" cy="209.167" r="7.29167" fill="white"/>
<circle cx="1120.04" cy="209.167" r="7.29167" fill="white"/>
<circle cx="1134.62" cy="209.167" r="7.29167" fill="white"/>
<circle cx="1149.21" cy="209.167" r="7.29167" fill="white"/>
<circle cx="1163.79" cy="209.167" r="7.29167" fill="white"/>
<circle cx="1178.37" cy="209.167" r="7.29167" fill="white"/>
<circle cx="1192.96" cy="209.167" r="7.29167" fill="white"/>
<circle cx="1207.54" cy="209.167" r="7.29167" fill="white"/>
<circle cx="1222.12" cy="209.167" r="7.29167" fill="white"/>
<circle cx="1236.71" cy="209.167" r="7.29167" fill="white"/>
<circle cx="1076.29" cy="229.583" r="7.29167" fill="white"/>
<circle cx="1090.87" cy="229.583" r="7.29167" fill="white"/>
<circle cx="1105.46" cy="229.583" r="7.29167" fill="white"/>
<circle cx="1120.04" cy="229.583" r="7.29167" fill="white"/>
<circle cx="1134.62" cy="229.583" r="7.29167" fill="white"/>
<circle cx="1149.21" cy="229.583" r="7.29167" fill="white"/>
<circle cx="1163.79" cy="229.583" r="7.29167" fill="white"/>
<circle cx="1178.37" cy="229.583" r="7.29167" fill="white"/>
<circle cx="1192.96" cy="229.583" r="7.29167" fill="white"/>
<circle cx="1207.54" cy="229.583" r="7.29167" fill="white"/>
<circle cx="1222.12" cy="229.583" r="7.29167" fill="white"/>
<circle cx="1236.71" cy="229.583" r="7.29167" fill="white"/>
<circle cx="1076.29" cy="250" r="7.29167" fill="white"/>
<circle cx="1090.87" cy="250" r="7.29167" fill="white"/>
<circle cx="1105.46" cy="250" r="7.29167" fill="white"/>
<circle cx="1120.04" cy="250" r="7.29167" fill="white"/>
<circle cx="1134.62" cy="250" r="7.29167" fill="white"/>
<circle cx="1149.21" cy="250" r="7.29167" fill="white"/>
<circle cx="1163.79" cy="250" r="7.29167" fill="white"/>
<circle cx="1178.37" cy="250" r="7.29167" fill="white"/>
<circle cx="1192.96" cy="250" r="7.29167" fill="white"/>
<circle cx="1207.54" cy="250" r="7.29167" fill="white"/>
<circle cx="1222.12" cy="250" r="7.29167" fill="white"/>
<circle cx="1236.71" cy="250" r="7.29167" fill="white"/>
<circle cx="1076.29" cy="270.417" r="7.29167" fill="white"/>
<circle cx="1090.87" cy="270.417" r="7.29167" fill="white"/>
<circle cx="1105.46" cy="270.417" r="7.29167" fill="white"/>
<circle cx="1120.04" cy="270.417" r="7.29167" fill="white"/>
<circle cx="1134.62" cy="270.417" r="7.29167" fill="white"/>
<circle cx="1149.21" cy="270.417" r="7.29167" fill="white"/>
<circle cx="1163.79" cy="270.417" r="7.29167" fill="white"/>
<circle cx="1178.37" cy="270.417" r="7.29167" fill="white"/>
<circle cx="1192.96" cy="270.417" r="7.29167" fill="white"/>
<circle cx="1207.54" cy="270.417" r="7.29167" fill="white"/>
<circle cx="1222.12" cy="270.417" r="7.29167" fill="white"/>
<circle cx="1236.71" cy="270.417" r="7.29167" fill="white"/>
<circle cx="1251.29" cy="4.12516" r="7.29167" fill="white"/>
<circle cx="1265.87" cy="4.12516" r="7.29167" fill="white"/>
<circle cx="1280.46" cy="4.12516" r="7.29167" fill="white"/>
<circle cx="1295.04" cy="4.12516" r="7.29167" fill="white"/>
<circle cx="1309.62" cy="4.12516" r="7.29167" fill="white"/>
<circle cx="1324.21" cy="4.12516" r="7.29167" fill="white"/>
<circle cx="1338.79" cy="4.12516" r="7.29167" fill="white"/>
<circle cx="1353.37" cy="4.12516" r="7.29167" fill="white"/>
<circle cx="1367.96" cy="4.12516" r="7.29167" fill="white"/>
<circle cx="1382.54" cy="4.12516" r="7.29167" fill="white"/>
<circle cx="1397.12" cy="4.12516" r="7.29167" fill="white"/>
<circle cx="1411.71" cy="4.12516" r="7.29167" fill="white"/>
<circle cx="1251.29" cy="24.5417" r="7.29167" fill="white"/>
<circle cx="1265.87" cy="24.5417" r="7.29167" fill="white"/>
<circle cx="1280.46" cy="24.5417" r="7.29167" fill="white"/>
<circle cx="1295.04" cy="24.5417" r="7.29167" fill="white"/>
<circle cx="1309.62" cy="24.5417" r="7.29167" fill="white"/>
<circle cx="1324.21" cy="24.5417" r="7.29167" fill="white"/>
<circle cx="1338.79" cy="24.5417" r="7.29167" fill="white"/>
<circle cx="1353.37" cy="24.5417" r="7.29167" fill="white"/>
<circle cx="1367.96" cy="24.5417" r="7.29167" fill="white"/>
<circle cx="1382.54" cy="24.5417" r="7.29167" fill="white"/>
<circle cx="1397.12" cy="24.5417" r="7.29167" fill="white"/>
<circle cx="1411.71" cy="24.5417" r="7.29167" fill="white"/>
<circle cx="1251.29" cy="44.9582" r="7.29167" fill="white"/>
<circle cx="1265.87" cy="44.9582" r="7.29167" fill="white"/>
<circle cx="1280.46" cy="44.9582" r="7.29167" fill="white"/>
<circle cx="1295.04" cy="44.9582" r="7.29167" fill="white"/>
<circle cx="1309.62" cy="44.9582" r="7.29167" fill="white"/>
<circle cx="1324.21" cy="44.9582" r="7.29167" fill="white"/>
<circle cx="1338.79" cy="44.9582" r="7.29167" fill="white"/>
<circle cx="1353.37" cy="44.9582" r="7.29167" fill="white"/>
<circle cx="1367.96" cy="44.9582" r="7.29167" fill="white"/>
<circle cx="1382.54" cy="44.9582" r="7.29167" fill="white"/>
<circle cx="1397.12" cy="44.9582" r="7.29167" fill="white"/>
<circle cx="1411.71" cy="44.9582" r="7.29167" fill="white"/>
<circle cx="1251.29" cy="65.3752" r="7.29167" fill="white"/>
<circle cx="1265.87" cy="65.3752" r="7.29167" fill="white"/>
<circle cx="1280.46" cy="65.3752" r="7.29167" fill="white"/>
<circle cx="1295.04" cy="65.3752" r="7.29167" fill="white"/>
<circle cx="1309.62" cy="65.3752" r="7.29167" fill="white"/>
<circle cx="1324.21" cy="65.3752" r="7.29167" fill="white"/>
<circle cx="1338.79" cy="65.3752" r="7.29167" fill="white"/>
<circle cx="1353.37" cy="65.3752" r="7.29167" fill="white"/>
<circle cx="1367.96" cy="65.3752" r="7.29167" fill="white"/>
<circle cx="1382.54" cy="65.3752" r="7.29167" fill="white"/>
<circle cx="1397.12" cy="65.3752" r="7.29167" fill="white"/>
<circle cx="1411.71" cy="65.3752" r="7.29167" fill="white"/>
<circle cx="1251.29" cy="85.7917" r="7.29167" fill="white"/>
<circle cx="1265.87" cy="85.7917" r="7.29167" fill="white"/>
<circle cx="1280.46" cy="85.7917" r="7.29167" fill="white"/>
<circle cx="1295.04" cy="85.7917" r="7.29167" fill="white"/>
<circle cx="1309.62" cy="85.7917" r="7.29167" fill="white"/>
<circle cx="1324.21" cy="85.7917" r="7.29167" fill="white"/>
<circle cx="1338.79" cy="85.7917" r="7.29167" fill="white"/>
<circle cx="1353.37" cy="85.7917" r="7.29167" fill="white"/>
<circle cx="1367.96" cy="85.7917" r="7.29167" fill="white"/>
<circle cx="1382.54" cy="85.7917" r="7.29167" fill="white"/>
<circle cx="1397.12" cy="85.7917" r="7.29167" fill="white"/>
<circle cx="1411.71" cy="85.7917" r="7.29167" fill="white"/>
<circle cx="1251.29" cy="106.208" r="7.29167" fill="white"/>
<circle cx="1265.87" cy="106.208" r="7.29167" fill="white"/>
<circle cx="1280.46" cy="106.208" r="7.29167" fill="white"/>
<circle cx="1295.04" cy="106.208" r="7.29167" fill="white"/>
<circle cx="1309.62" cy="106.208" r="7.29167" fill="white"/>
<circle cx="1324.21" cy="106.208" r="7.29167" fill="white"/>
<circle cx="1338.79" cy="106.208" r="7.29167" fill="white"/>
<circle cx="1353.37" cy="106.208" r="7.29167" fill="white"/>
<circle cx="1367.96" cy="106.208" r="7.29167" fill="white"/>
<circle cx="1382.54" cy="106.208" r="7.29167" fill="white"/>
<circle cx="1397.12" cy="106.208" r="7.29167" fill="white"/>
<circle cx="1411.71" cy="106.208" r="7.29167" fill="white"/>
<circle cx="1251.29" cy="126.625" r="7.29167" fill="white"/>
<circle cx="1265.87" cy="126.625" r="7.29167" fill="white"/>
<circle cx="1280.46" cy="126.625" r="7.29167" fill="white"/>
<circle cx="1295.04" cy="126.625" r="7.29167" fill="white"/>
<circle cx="1309.62" cy="126.625" r="7.29167" fill="white"/>
<circle cx="1324.21" cy="126.625" r="7.29167" fill="white"/>
<circle cx="1338.79" cy="126.625" r="7.29167" fill="white"/>
<circle cx="1353.37" cy="126.625" r="7.29167" fill="white"/>
<circle cx="1367.96" cy="126.625" r="7.29167" fill="white"/>
<circle cx="1382.54" cy="126.625" r="7.29167" fill="white"/>
<circle cx="1397.12" cy="126.625" r="7.29167" fill="white"/>
<circle cx="1411.71" cy="126.625" r="7.29167" fill="white"/>
<circle cx="1426.29" cy="4.12516" r="7.29167" fill="white"/>
<circle cx="1426.29" cy="24.5417" r="7.29167" fill="white"/>
<circle cx="1426.29" cy="44.9582" r="7.29167" fill="white"/>
<circle cx="1426.29" cy="65.3752" r="7.29167" fill="white"/>
<circle cx="1426.29" cy="85.7917" r="7.29167" fill="white"/>
<circle cx="1426.29" cy="106.208" r="7.29167" fill="white"/>
<circle cx="1426.29" cy="126.625" r="7.29167" fill="white"/>
<circle cx="1251.29" cy="147.917" r="7.29167" fill="white"/>
<circle cx="1265.87" cy="147.917" r="7.29167" fill="white"/>
<circle cx="1280.46" cy="147.917" r="7.29167" fill="white"/>
<circle cx="1295.04" cy="147.917" r="7.29167" fill="white"/>
<circle cx="1309.62" cy="147.917" r="7.29167" fill="white"/>
<circle cx="1324.21" cy="147.917" r="7.29167" fill="white"/>
<circle cx="1338.79" cy="147.917" r="7.29167" fill="white"/>
<circle cx="1353.37" cy="147.917" r="7.29167" fill="white"/>
<circle cx="1367.96" cy="147.917" r="7.29167" fill="white"/>
<circle cx="1382.54" cy="147.917" r="7.29167" fill="white"/>
<circle cx="1397.12" cy="147.917" r="7.29167" fill="white"/>
<circle cx="1411.71" cy="147.917" r="7.29167" fill="white"/>
<circle cx="1251.29" cy="168.333" r="7.29167" fill="white"/>
<circle cx="1265.87" cy="168.333" r="7.29167" fill="white"/>
<circle cx="1280.46" cy="168.333" r="7.29167" fill="white"/>
<circle cx="1295.04" cy="168.333" r="7.29167" fill="white"/>
<circle cx="1309.62" cy="168.333" r="7.29167" fill="white"/>
<circle cx="1324.21" cy="168.333" r="7.29167" fill="white"/>
<circle cx="1338.79" cy="168.333" r="7.29167" fill="white"/>
<circle cx="1353.37" cy="168.333" r="7.29167" fill="white"/>
<circle cx="1367.96" cy="168.333" r="7.29167" fill="white"/>
<circle cx="1382.54" cy="168.333" r="7.29167" fill="white"/>
<circle cx="1397.12" cy="168.333" r="7.29167" fill="white"/>
<circle cx="1411.71" cy="168.333" r="7.29167" fill="white"/>
<circle cx="1251.29" cy="188.75" r="7.29167" fill="white"/>
<circle cx="1265.87" cy="188.75" r="7.29167" fill="white"/>
<circle cx="1280.46" cy="188.75" r="7.29167" fill="white"/>
<circle cx="1295.04" cy="188.75" r="7.29167" fill="white"/>
<circle cx="1309.62" cy="188.75" r="7.29167" fill="white"/>
<circle cx="1324.21" cy="188.75" r="7.29167" fill="white"/>
<circle cx="1338.79" cy="188.75" r="7.29167" fill="white"/>
<circle cx="1353.37" cy="188.75" r="7.29167" fill="white"/>
<circle cx="1367.96" cy="188.75" r="7.29167" fill="white"/>
<circle cx="1382.54" cy="188.75" r="7.29167" fill="white"/>
<circle cx="1397.12" cy="188.75" r="7.29167" fill="white"/>
<circle cx="1411.71" cy="188.75" r="7.29167" fill="white"/>
<circle cx="1251.29" cy="209.167" r="7.29167" fill="white"/>
<circle cx="1265.87" cy="209.167" r="7.29167" fill="white"/>
<circle cx="1280.46" cy="209.167" r="7.29167" fill="white"/>
<circle cx="1295.04" cy="209.167" r="7.29167" fill="white"/>
<circle cx="1309.62" cy="209.167" r="7.29167" fill="white"/>
<circle cx="1324.21" cy="209.167" r="7.29167" fill="white"/>
<circle cx="1338.79" cy="209.167" r="7.29167" fill="white"/>
<circle cx="1353.37" cy="209.167" r="7.29167" fill="white"/>
<circle cx="1367.96" cy="209.167" r="7.29167" fill="white"/>
<circle cx="1382.54" cy="209.167" r="7.29167" fill="white"/>
<circle cx="1397.12" cy="209.167" r="7.29167" fill="white"/>
<circle cx="1411.71" cy="209.167" r="7.29167" fill="white"/>
<circle cx="1251.29" cy="229.583" r="7.29167" fill="white"/>
<circle cx="1265.87" cy="229.583" r="7.29167" fill="white"/>
<circle cx="1280.46" cy="229.583" r="7.29167" fill="white"/>
<circle cx="1295.04" cy="229.583" r="7.29167" fill="white"/>
<circle cx="1309.62" cy="229.583" r="7.29167" fill="white"/>
<circle cx="1324.21" cy="229.583" r="7.29167" fill="white"/>
<circle cx="1338.79" cy="229.583" r="7.29167" fill="white"/>
<circle cx="1353.37" cy="229.583" r="7.29167" fill="white"/>
<circle cx="1367.96" cy="229.583" r="7.29167" fill="white"/>
<circle cx="1382.54" cy="229.583" r="7.29167" fill="white"/>
<circle cx="1397.12" cy="229.583" r="7.29167" fill="white"/>
<circle cx="1411.71" cy="229.583" r="7.29167" fill="white"/>
<circle cx="1251.29" cy="250" r="7.29167" fill="white"/>
<circle cx="1265.87" cy="250" r="7.29167" fill="white"/>
<circle cx="1280.46" cy="250" r="7.29167" fill="white"/>
<circle cx="1295.04" cy="250" r="7.29167" fill="white"/>
<circle cx="1309.62" cy="250" r="7.29167" fill="white"/>
<circle cx="1324.21" cy="250" r="7.29167" fill="white"/>
<circle cx="1338.79" cy="250" r="7.29167" fill="white"/>
<circle cx="1353.37" cy="250" r="7.29167" fill="white"/>
<circle cx="1367.96" cy="250" r="7.29167" fill="white"/>
<circle cx="1382.54" cy="250" r="7.29167" fill="white"/>
<circle cx="1397.12" cy="250" r="7.29167" fill="white"/>
<circle cx="1411.71" cy="250" r="7.29167" fill="white"/>
<circle cx="1251.29" cy="270.417" r="7.29167" fill="white"/>
<circle cx="1265.87" cy="270.417" r="7.29167" fill="white"/>
<circle cx="1280.46" cy="270.417" r="7.29167" fill="white"/>
<circle cx="1295.04" cy="270.417" r="7.29167" fill="white"/>
<circle cx="1309.62" cy="270.417" r="7.29167" fill="white"/>
<circle cx="1324.21" cy="270.417" r="7.29167" fill="white"/>
<circle cx="1338.79" cy="270.417" r="7.29167" fill="white"/>
<circle cx="1353.37" cy="270.417" r="7.29167" fill="white"/>
<circle cx="1367.96" cy="270.417" r="7.29167" fill="white"/>
<circle cx="1382.54" cy="270.417" r="7.29167" fill="white"/>
<circle cx="1397.12" cy="270.417" r="7.29167" fill="white"/>
<circle cx="1411.71" cy="270.417" r="7.29167" fill="white"/>
<circle cx="1426.29" cy="147.917" r="7.29167" fill="white"/>
<circle cx="1426.29" cy="168.333" r="7.29167" fill="white"/>
<circle cx="1426.29" cy="188.75" r="7.29167" fill="white"/>
<circle cx="1426.29" cy="209.167" r="7.29167" fill="white"/>
<circle cx="1426.29" cy="229.583" r="7.29167" fill="white"/>
<circle cx="1426.29" cy="250" r="7.29167" fill="white"/>
<circle cx="1426.29" cy="270.417" r="7.29167" fill="white"/>
</g>
</svg>
